<?xml version="1.0" encoding="UTF-8"?><svg id="Layer_2" xmlns="http://www.w3.org/2000/svg" viewBox="0 0 382.97 72.79"><defs><style>.cls-1{fill:#df6c16;}.cls-2{fill:#53585d;}</style></defs><g id="Layer_1-2"><g><g><path class="cls-1" d="M16.56,65.14c.02,.11,.04,.23,.05,.34,.03-.17,.06-.33,.09-.49-.04,.05-.1,.1-.14,.15Zm0,0c.02,.11,.04,.23,.05,.34,.03-.17,.06-.33,.09-.49-.04,.05-.1,.1-.14,.15Zm0,0c.02,.11,.04,.23,.05,.34,.03-.17,.06-.33,.09-.49-.04,.05-.1,.1-.14,.15Zm0,0c.02,.11,.04,.23,.05,.34,.03-.17,.06-.33,.09-.49-.04,.05-.1,.1-.14,.15Zm0,0c.02,.11,.04,.23,.05,.34,.03-.17,.06-.33,.09-.49-.04,.05-.1,.1-.14,.15ZM63.05,15.2s.01,0,.02,.01c.01-.02,.01-.01-.02-.01ZM16.56,65.14c.02,.11,.04,.23,.05,.34,.03-.17,.06-.33,.09-.49-.04,.05-.1,.1-.14,.15ZM63.05,15.2s.01,0,.02,.01c.01-.02,.01-.01-.02-.01ZM16.56,65.14c.02,.11,.04,.23,.05,.34,.03-.17,.06-.33,.09-.49-.04,.05-.1,.1-.14,.15ZM63.05,15.2s.01,0,.02,.01c.01-.02,.01-.01-.02-.01Zm7.45,5.77c-.11-.05-.24-.11-.37-.15-1.09-.39-2.86-.6-3.93-.28-.05,.02-.11,.03-.16,.05,.01-.07,.01-.14,.01-.21-.04-1.71-1.99-4.77-2.98-5.16,0,.01-.01,.03-.03,.06-.41,1.03-.04,2.4,.29,3.42,.33,.81,.78,1.84,1.56,2.39,.09,.06,.19,.12,.3,.16,.05,.02,.1,.04,.15,.05,0,.08,.04,.16,.07,.22,.2,.41,.75,.63,1.16,.74,1.49,.32,3.39,.14,4.4-.97-.09-.12-.25-.23-.47-.33Zm3.64-2.1s-.04,.03-.06,.05c.03,.01,.06,.04,.09,.06-.02-.03-.03-.09-.03-.11ZM16.56,65.14c.02,.11,.04,.23,.05,.34,.03-.17,.06-.33,.09-.49-.04,.05-.1,.1-.14,.15ZM63.05,15.2s.01,0,.02,.01c.01-.02,.01-.01-.02-.01Zm7.45,5.77c-.11-.05-.24-.11-.37-.15-1.09-.39-2.86-.6-3.93-.28-.05,.02-.11,.03-.16,.05,.01-.07,.01-.14,.01-.21-.04-1.71-1.99-4.77-2.98-5.16,0,.01-.01,.03-.03,.06-.41,1.03-.04,2.4,.29,3.42,.33,.81,.78,1.84,1.56,2.39,.09,.06,.19,.12,.3,.16,.05,.02,.1,.04,.15,.05,0,.08,.04,.16,.07,.22,.2,.41,.75,.63,1.16,.74,1.49,.32,3.39,.14,4.4-.97-.09-.12-.25-.23-.47-.33Zm3.64-2.1s-.04,.03-.06,.05c.03,.01,.06,.04,.09,.06-.02-.03-.03-.09-.03-.11ZM16.56,65.14c.02,.11,.04,.23,.05,.34,.03-.17,.06-.33,.09-.49-.04,.05-.1,.1-.14,.15ZM63.05,15.2s.01,0,.02,.01c.01-.02,.01-.01-.02-.01Zm7.45,5.77c-.11-.05-.24-.11-.37-.15-1.09-.39-2.86-.6-3.93-.28-.05,.02-.11,.03-.16,.05,.01-.07,.01-.14,.01-.21-.04-1.71-1.99-4.77-2.98-5.16,0,.01-.01,.03-.03,.06-.41,1.03-.04,2.4,.29,3.42,.33,.81,.78,1.84,1.56,2.39,.09,.06,.19,.12,.3,.16,.05,.02,.1,.04,.15,.05,0,.08,.04,.16,.07,.22,.2,.41,.75,.63,1.16,.74,1.49,.32,3.39,.14,4.4-.97-.09-.12-.25-.23-.47-.33Zm1.26-2.89c-.94-.22-1.85-.6-2.83-.58-.07,0-.15,0-.24,.02-.06,0-.13,.02-.19,.05,.03-.05,.04-.1,.05-.16,.17-.53-.02-1.27-.4-2h0c-.43-.82-1.08-1.63-1.7-2.08-.31-.24-.6-.39-.86-.4-.85,.99,.9,4.79,2.38,4.97,.06,.01,.12,.02,.18,0,0,.05,0,.1,.02,.14,.36,1.32,3.23,1.66,4.34,1.48,.57-.07,1.2-.27,1.57-.6-.57-.47-1.59-.64-2.32-.84Zm2.38,.79s-.04,.03-.06,.05c.03,.01,.06,.04,.09,.06-.02-.03-.03-.09-.03-.11ZM16.56,65.14c.02,.11,.04,.23,.05,.34,.03-.17,.06-.33,.09-.49-.04,.05-.1,.1-.14,.15ZM63.05,15.2s.01,0,.02,.01c.01-.02,.01-.01-.02-.01Zm7.45,5.77c-.11-.05-.24-.11-.37-.15-1.09-.39-2.86-.6-3.93-.28-.05,.02-.11,.03-.16,.05,.01-.07,.01-.14,.01-.21-.04-1.71-1.99-4.77-2.98-5.16,0,.01-.01,.03-.03,.06-.41,1.03-.04,2.4,.29,3.42,.33,.81,.78,1.84,1.56,2.39,.09,.06,.19,.12,.3,.16,.05,.02,.1,.04,.15,.05,0,.08,.04,.16,.07,.22,.2,.41,.75,.63,1.16,.74,1.49,.32,3.39,.14,4.4-.97-.09-.12-.25-.23-.47-.33Zm.58-12.92s.02,0,.02,.02c.03-.02,.02-.02-.02-.02Zm.67,10.03c-.94-.22-1.85-.6-2.83-.58-.07,0-.15,0-.24,.02-.06,0-.13,.02-.19,.05,.03-.05,.04-.1,.05-.16,.17-.53-.02-1.27-.4-2h0c-.43-.82-1.08-1.63-1.7-2.08-.31-.24-.6-.39-.86-.4-.85,.99,.9,4.79,2.38,4.97,.06,.01,.12,.02,.18,0,0,.05,0,.1,.02,.14,.36,1.32,3.23,1.66,4.34,1.48,.57-.07,1.2-.27,1.57-.6-.57-.47-1.59-.64-2.32-.84Zm2.38,.79s-.04,.03-.06,.05c.03,.01,.06,.04,.09,.06-.02-.03-.03-.09-.03-.11Zm.36-3.77c-1.03-.03-2.31-.44-3.3-.03-.05,.02-.11,.05-.15,.07-.01-.05-.03-.11-.04-.16-.07-.28-.2-.6-.37-.94-.4-.81-1.01-1.71-1.57-2.34-.44-.51-.85-.86-1.1-.87-.51,.85-.13,2.02,.42,2.87,.51,.73,1.17,2.06,2.19,2.23,.1,.02,.2,.02,.32,.01h.01s.06,.06,.1,.1c.84,.79,3.45,.66,4.22,.36,.3-.09,.61-.2,.89-.35v-.77c-.53-.09-1.11-.11-1.61-.18ZM16.56,65.14c.02,.11,.04,.23,.05,.34,.03-.17,.06-.33,.09-.49-.04,.05-.1,.1-.14,.15ZM63.05,15.2s.01,0,.02,.01c.01-.02,.01-.01-.02-.01Zm7.45,5.77c-.11-.05-.24-.11-.37-.15-1.09-.39-2.86-.6-3.93-.28-.05,.02-.11,.03-.16,.05,.01-.07,.01-.14,.01-.21-.04-1.71-1.99-4.77-2.98-5.16,0,.01-.01,.03-.03,.06-.41,1.03-.04,2.4,.29,3.42,.33,.81,.78,1.84,1.56,2.39,.09,.06,.19,.12,.3,.16,.05,.02,.1,.04,.15,.05,0,.08,.04,.16,.07,.22,.2,.41,.75,.63,1.16,.74,1.49,.32,3.39,.14,4.4-.97-.09-.12-.25-.23-.47-.33Zm.58-12.92s.02,0,.02,.02c.03-.02,.02-.02-.02-.02Zm.67,10.03c-.94-.22-1.85-.6-2.83-.58-.07,0-.15,0-.24,.02-.06,0-.13,.02-.19,.05,.03-.05,.04-.1,.05-.16,.17-.53-.02-1.27-.4-2h0c-.43-.82-1.08-1.63-1.7-2.08-.31-.24-.6-.39-.86-.4-.85,.99,.9,4.79,2.38,4.97,.06,.01,.12,.02,.18,0,0,.05,0,.1,.02,.14,.36,1.32,3.23,1.66,4.34,1.48,.57-.07,1.2-.27,1.57-.6-.57-.47-1.59-.64-2.32-.84Zm2.38,.79s-.04,.03-.06,.05c.03,.01,.06,.04,.09,.06-.02-.03-.03-.09-.03-.11Zm.36-3.77c-1.03-.03-2.31-.44-3.3-.03-.05,.02-.11,.05-.15,.07-.01-.05-.03-.11-.04-.16-.07-.28-.2-.6-.37-.94-.4-.81-1.01-1.71-1.57-2.34-.44-.51-.85-.86-1.1-.87-.51,.85-.13,2.02,.42,2.87,.51,.73,1.17,2.06,2.19,2.23,.1,.02,.2,.02,.32,.01h.01s.06,.06,.1,.1c.84,.79,3.45,.66,4.22,.36,.3-.09,.61-.2,.89-.35v-.77c-.53-.09-1.11-.11-1.61-.18ZM16.56,65.14c.02,.11,.04,.23,.05,.34,.03-.17,.06-.33,.09-.49-.04,.05-.1,.1-.14,.15ZM63.05,15.2s.01,0,.02,.01c.01-.02,.01-.01-.02-.01Zm7.45,5.77c-.11-.05-.24-.11-.37-.15-1.09-.39-2.86-.6-3.93-.28-.05,.02-.11,.03-.16,.05,.01-.07,.01-.14,.01-.21-.04-1.71-1.99-4.77-2.98-5.16,0,.01-.01,.03-.03,.06-.41,1.03-.04,2.4,.29,3.42,.33,.81,.78,1.84,1.56,2.39,.09,.06,.19,.12,.3,.16,.05,.02,.1,.04,.15,.05,0,.08,.04,.16,.07,.22,.2,.41,.75,.63,1.16,.74,1.49,.32,3.39,.14,4.4-.97-.09-.12-.25-.23-.47-.33Zm.58-12.92s.02,0,.02,.02c.03-.02,.02-.02-.02-.02Zm.67,10.03c-.94-.22-1.85-.6-2.83-.58-.07,0-.15,0-.24,.02-.06,0-.13,.02-.19,.05,.03-.05,.04-.1,.05-.16,.17-.53-.02-1.27-.4-2h0c-.43-.82-1.08-1.63-1.7-2.08-.31-.24-.6-.39-.86-.4-.85,.99,.9,4.79,2.38,4.97,.06,.01,.12,.02,.18,0,0,.05,0,.1,.02,.14,.36,1.32,3.23,1.66,4.34,1.48,.57-.07,1.2-.27,1.57-.6-.57-.47-1.59-.64-2.32-.84Zm2.38,.79s-.04,.03-.06,.05c.03,.01,.06,.04,.09,.06-.02-.03-.03-.09-.03-.11Zm.36-3.77c-1.03-.03-2.31-.44-3.3-.03-.05,.02-.11,.05-.15,.07-.01-.05-.03-.11-.04-.16-.07-.28-.2-.6-.37-.94-.4-.81-1.01-1.71-1.57-2.34-.44-.51-.85-.86-1.1-.87-.51,.85-.13,2.02,.42,2.87,.51,.73,1.17,2.06,2.19,2.23,.1,.02,.2,.02,.32,.01h.01s.06,.06,.1,.1c.84,.79,3.45,.66,4.22,.36,.3-.09,.61-.2,.89-.35v-.77c-.53-.09-1.11-.11-1.61-.18ZM16.56,65.14c.02,.11,.04,.23,.05,.34,.03-.17,.06-.33,.09-.49-.04,.05-.1,.1-.14,.15ZM63.05,15.2s.01,0,.02,.01c.01-.02,.01-.01-.02-.01Zm7.45,5.77c-.11-.05-.24-.11-.37-.15-1.09-.39-2.86-.6-3.93-.28-.05,.02-.11,.03-.16,.05,.01-.07,.01-.14,.01-.21-.04-1.71-1.99-4.77-2.98-5.16,0,.01-.01,.03-.03,.06-.41,1.03-.04,2.4,.29,3.42,.33,.81,.78,1.84,1.56,2.39,.09,.06,.19,.12,.3,.16,.05,.02,.1,.04,.15,.05,0,.08,.04,.16,.07,.22,.2,.41,.75,.63,1.16,.74,1.49,.32,3.39,.14,4.4-.97-.09-.12-.25-.23-.47-.33Zm.58-12.92s.02,0,.02,.02c.03-.02,.02-.02-.02-.02Zm.67,10.03c-.94-.22-1.85-.6-2.83-.58-.07,0-.15,0-.24,.02-.06,0-.13,.02-.19,.05,.03-.05,.04-.1,.05-.16,.17-.53-.02-1.27-.4-2h0c-.43-.82-1.08-1.63-1.7-2.08-.31-.24-.6-.39-.86-.4-.85,.99,.9,4.79,2.38,4.97,.06,.01,.12,.02,.18,0,0,.05,0,.1,.02,.14,.36,1.32,3.23,1.66,4.34,1.48,.57-.07,1.2-.27,1.57-.6-.57-.47-1.59-.64-2.32-.84Zm2.38,.79s-.04,.03-.06,.05c.03,.01,.06,.04,.09,.06-.02-.03-.03-.09-.03-.11Zm.36-3.77c-1.03-.03-2.31-.44-3.3-.03-.05,.02-.11,.05-.15,.07-.01-.05-.03-.11-.04-.16-.07-.28-.2-.6-.37-.94-.4-.81-1.01-1.71-1.57-2.34-.44-.51-.85-.86-1.1-.87-.51,.85-.13,2.02,.42,2.87,.51,.73,1.17,2.06,2.19,2.23,.1,.02,.2,.02,.32,.01h.01s.06,.06,.1,.1c.84,.79,3.45,.66,4.22,.36,.3-.09,.61-.2,.89-.35v-.77c-.53-.09-1.11-.11-1.61-.18ZM16.56,65.14c.02,.11,.04,.23,.05,.34,.03-.17,.06-.33,.09-.49-.04,.05-.1,.1-.14,.15ZM63.05,15.2s.01,0,.02,.01c.01-.02,.01-.01-.02-.01Zm7.45,5.77c-.11-.05-.24-.11-.37-.15-1.09-.39-2.86-.6-3.93-.28-.05,.02-.11,.03-.16,.05,.01-.07,.01-.14,.01-.21-.04-1.71-1.99-4.77-2.98-5.16,0,.01-.01,.03-.03,.06-.41,1.03-.04,2.4,.29,3.42,.33,.81,.78,1.84,1.56,2.39,.09,.06,.19,.12,.3,.16,.05,.02,.1,.04,.15,.05,0,.08,.04,.16,.07,.22,.2,.41,.75,.63,1.16,.74,1.49,.32,3.39,.14,4.4-.97-.09-.12-.25-.23-.47-.33Zm.58-12.92s.02,0,.02,.02c.03-.02,.02-.02-.02-.02Zm.67,10.03c-.94-.22-1.85-.6-2.83-.58-.07,0-.15,0-.24,.02-.06,0-.13,.02-.19,.05,.03-.05,.04-.1,.05-.16,.17-.53-.02-1.27-.4-2h0c-.43-.82-1.08-1.63-1.7-2.08-.31-.24-.6-.39-.86-.4-.85,.99,.9,4.79,2.38,4.97,.06,.01,.12,.02,.18,0,0,.05,0,.1,.02,.14,.36,1.32,3.23,1.66,4.34,1.48,.57-.07,1.2-.27,1.57-.6-.57-.47-1.59-.64-2.32-.84Zm2.38,.79s-.04,.03-.06,.05c.03,.01,.06,.04,.09,.06-.02-.03-.03-.09-.03-.11Zm.36-3.77c-1.03-.03-2.31-.44-3.3-.03-.05,.02-.11,.05-.15,.07-.01-.05-.03-.11-.04-.16-.07-.28-.2-.6-.37-.94-.4-.81-1.01-1.71-1.57-2.34-.44-.51-.85-.86-1.1-.87-.51,.85-.13,2.02,.42,2.87,.51,.73,1.17,2.06,2.19,2.23,.1,.02,.2,.02,.32,.01h.01s.06,.06,.1,.1c.84,.79,3.45,.66,4.22,.36,.3-.09,.61-.2,.89-.35v-.77c-.53-.09-1.11-.11-1.61-.18Zm.98-2.55c-.72,.01-1.6,.04-2.33,.34-.09,.03-.18,.07-.27,.12,0-.2-.02-.41-.04-.63-.2-1.72-1.07-3.86-1.75-4.31,0,.01-.01,.03-.04,.05-.63,.9-.6,2.34-.5,3.4,.13,.86,.33,1.96,.97,2.69,.21,.22,.52,.46,.82,.35,.09-.05,.16-.12,.21-.2,.03-.03,.05-.06,.06-.09,.04,.02,.09,.05,.14,.06,.17,.07,.37,.12,.57,.14h0c.26,.04,.52,.04,.74,.04,.58-.03,1.17-.08,1.75-.17h.02c.09-.01,.18-.03,.26-.04v-1.71c-.21-.02-.43-.03-.63-.04ZM16.56,65.14c.02,.11,.04,.23,.05,.34,.03-.17,.06-.33,.09-.49-.04,.05-.1,.1-.14,.15ZM63.05,15.2s.01,0,.02,.01c.01-.02,.01-.01-.02-.01Zm7.45,5.77c-.11-.05-.24-.11-.37-.15-1.09-.39-2.86-.6-3.93-.28-.05,.02-.11,.03-.16,.05,.01-.07,.01-.14,.01-.21-.04-1.71-1.99-4.77-2.98-5.16,0,.01-.01,.03-.03,.06-.41,1.03-.04,2.4,.29,3.42,.33,.81,.78,1.84,1.56,2.39,.09,.06,.19,.12,.3,.16,.05,.02,.1,.04,.15,.05,0,.08,.04,.16,.07,.22,.2,.41,.75,.63,1.16,.74,1.49,.32,3.39,.14,4.4-.97-.09-.12-.25-.23-.47-.33Zm.58-12.92s.02,0,.02,.02c.03-.02,.02-.02-.02-.02Zm.67,10.03c-.94-.22-1.85-.6-2.83-.58-.07,0-.15,0-.24,.02-.06,0-.13,.02-.19,.05,.03-.05,.04-.1,.05-.16,.17-.53-.02-1.27-.4-2h0c-.43-.82-1.08-1.63-1.7-2.08-.31-.24-.6-.39-.86-.4-.85,.99,.9,4.79,2.38,4.97,.06,.01,.12,.02,.18,0,0,.05,0,.1,.02,.14,.36,1.32,3.23,1.66,4.34,1.48,.57-.07,1.2-.27,1.57-.6-.57-.47-1.59-.64-2.32-.84Zm2.38,.79s-.04,.03-.06,.05c.03,.01,.06,.04,.09,.06-.02-.03-.03-.09-.03-.11Zm.36-3.77c-1.03-.03-2.31-.44-3.3-.03-.05,.02-.11,.05-.15,.07-.01-.05-.03-.11-.04-.16-.07-.28-.2-.6-.37-.94-.4-.81-1.01-1.71-1.57-2.34-.44-.51-.85-.86-1.1-.87-.51,.85-.13,2.02,.42,2.87,.51,.73,1.17,2.06,2.19,2.23,.1,.02,.2,.02,.32,.01h.01s.06,.06,.1,.1c.84,.79,3.45,.66,4.22,.36,.3-.09,.61-.2,.89-.35v-.77c-.53-.09-1.11-.11-1.61-.18Zm.98-2.55c-.72,.01-1.6,.04-2.33,.34-.09,.03-.18,.07-.27,.12,0-.2-.02-.41-.04-.63-.2-1.72-1.07-3.86-1.75-4.31,0,.01-.01,.03-.04,.05-.63,.9-.6,2.34-.5,3.4,.13,.86,.33,1.96,.97,2.69,.21,.22,.52,.46,.82,.35,.09-.05,.16-.12,.21-.2,.03-.03,.05-.06,.06-.09,.04,.02,.09,.05,.14,.06,.17,.07,.37,.12,.57,.14h0c.26,.04,.52,.04,.74,.04,.58-.03,1.17-.08,1.75-.17h.02c.09-.01,.18-.03,.26-.04v-1.71c-.21-.02-.43-.03-.63-.04ZM10.65,3.66V69.12h.59c1.93-1.1,3.72-2.43,5.32-3.99-1.37-9.12,1.12-18.91,6.7-26.25-2.71,8.64-4.88,17.2-6.55,26.1,.57-.56,1.1-1.15,1.61-1.76,2.48-2.98,5.11-5.89,7.89-8.64,2.77-4.04,5.28-8.14,7.21-12.62,1.48-3.29,2.43-6.78,3.77-10.16,2.03-5.11,4.45-10.09,7.57-14.64-2.23,6.06-5.35,14.46-7.28,20.53-1.55,4.64-3.93,9.04-7.01,12.87,1.01-.89,2.04-1.77,3.09-2.61,9.87-8.43,20.01-17.9,29.96-27.06-1.36-.74-2.16-2.37-2.1-3.89,.07-1.04,.15-2.64,1.46-2.96,.39-.04,.67,.12,.87,.24,.06,.05,.12,.1,.17,.15v-.13c.02-.98,.37-2.53,1.68-2.54,.27,.02,.51,.09,.74,.21,.06-.92,.36-1.86,1.27-2.25,.49-.1,.94,.06,1.35,.39,.02-.23,.06-.47,.12-.7,.32-1,.77-2.54,2.11-2.54,.39,.05,.63,.27,.79,.43,.19,.24,.35,.49,.49,.75,.17-.75,.53-1.46,1.08-2.05,.64-.65,1.42-1.43,2.46-1.19,.04,.02,.07,.03,.11,.05v-1.23H10.65Zm63.49,15.21s-.04,.03-.06,.05c.03,.01,.06,.04,.09,.06-.02-.03-.03-.09-.03-.11Zm-2.38-.79c-.94-.22-1.85-.6-2.83-.58-.07,0-.15,0-.24,.02-.06,0-.13,.02-.19,.05,.03-.05,.04-.1,.05-.16,.17-.53-.02-1.27-.4-2h0c-.43-.82-1.08-1.63-1.7-2.08-.31-.24-.6-.39-.86-.4-.85,.99,.9,4.79,2.38,4.97,.06,.01,.12,.02,.18,0,0,.05,0,.1,.02,.14,.36,1.32,3.23,1.66,4.34,1.48,.57-.07,1.2-.27,1.57-.6-.57-.47-1.59-.64-2.32-.84Zm-.67-10.03s.02,0,.02,.02c.03-.02,.02-.02-.02-.02Zm-.58,12.92c-.11-.05-.24-.11-.37-.15-1.09-.39-2.86-.6-3.93-.28-.05,.02-.11,.03-.16,.05,.01-.07,.01-.14,.01-.21-.04-1.71-1.99-4.77-2.98-5.16,0,.01-.01,.03-.03,.06-.41,1.03-.04,2.4,.29,3.42,.33,.81,.78,1.84,1.56,2.39,.09,.06,.19,.12,.3,.16,.05,.02,.1,.04,.15,.05,0,.08,.04,.16,.07,.22,.2,.41,.75,.63,1.16,.74,1.49,.32,3.39,.14,4.4-.97-.09-.12-.25-.23-.47-.33Zm-7.45-5.77s.01,0,.02,.01c.01-.02,.01-.01-.02-.01ZM16.56,65.14c.02,.11,.04,.23,.05,.34,.03-.17,.06-.33,.09-.49-.04,.05-.1,.1-.14,.15ZM75.49,12.55c-.72,.01-1.6,.04-2.33,.34-.09,.03-.18,.07-.27,.12,0-.2-.02-.41-.04-.63-.2-1.72-1.07-3.86-1.75-4.31,0,.01-.01,.03-.04,.05-.63,.9-.6,2.34-.5,3.4,.13,.86,.33,1.96,.97,2.69,.21,.22,.52,.46,.82,.35,.09-.05,.16-.12,.21-.2,.03-.03,.05-.06,.06-.09,.04,.02,.09,.05,.14,.06,.17,.07,.37,.12,.57,.14h0c.26,.04,.52,.04,.74,.04,.58-.03,1.17-.08,1.75-.17h.02c.09-.01,.18-.03,.26-.04v-1.71c-.21-.02-.43-.03-.63-.04Zm-.98,2.55c-1.03-.03-2.31-.44-3.3-.03-.05,.02-.11,.05-.15,.07-.01-.05-.03-.11-.04-.16-.07-.28-.2-.6-.37-.94-.4-.81-1.01-1.71-1.57-2.34-.44-.51-.85-.86-1.1-.87-.51,.85-.13,2.02,.42,2.87,.51,.73,1.17,2.06,2.19,2.23,.1,.02,.2,.02,.32,.01h.01s.06,.06,.1,.1c.84,.79,3.45,.66,4.22,.36,.3-.09,.61-.2,.89-.35v-.77c-.53-.09-1.11-.11-1.61-.18Zm-.36,3.77s-.04,.03-.06,.05c.03,.01,.06,.04,.09,.06-.02-.03-.03-.09-.03-.11Zm-2.38-.79c-.94-.22-1.85-.6-2.83-.58-.07,0-.15,0-.24,.02-.06,0-.13,.02-.19,.05,.03-.05,.04-.1,.05-.16,.17-.53-.02-1.27-.4-2h0c-.43-.82-1.08-1.63-1.7-2.08-.31-.24-.6-.39-.86-.4-.85,.99,.9,4.79,2.38,4.97,.06,.01,.12,.02,.18,0,0,.05,0,.1,.02,.14,.36,1.32,3.23,1.66,4.34,1.48,.57-.07,1.2-.27,1.57-.6-.57-.47-1.59-.64-2.32-.84Zm-.67-10.03s.02,0,.02,.02c.03-.02,.02-.02-.02-.02Zm-.58,12.92c-.11-.05-.24-.11-.37-.15-1.09-.39-2.86-.6-3.93-.28-.05,.02-.11,.03-.16,.05,.01-.07,.01-.14,.01-.21-.04-1.71-1.99-4.77-2.98-5.16,0,.01-.01,.03-.03,.06-.41,1.03-.04,2.4,.29,3.42,.33,.81,.78,1.84,1.56,2.39,.09,.06,.19,.12,.3,.16,.05,.02,.1,.04,.15,.05,0,.08,.04,.16,.07,.22,.2,.41,.75,.63,1.16,.74,1.49,.32,3.39,.14,4.4-.97-.09-.12-.25-.23-.47-.33Zm-7.45-5.77s.01,0,.02,.01c.01-.02,.01-.01-.02-.01ZM16.56,65.14c.02,.11,.04,.23,.05,.34,.03-.17,.06-.33,.09-.49-.04,.05-.1,.1-.14,.15ZM75.49,12.55c-.72,.01-1.6,.04-2.33,.34-.09,.03-.18,.07-.27,.12,0-.2-.02-.41-.04-.63-.2-1.72-1.07-3.86-1.75-4.31,0,.01-.01,.03-.04,.05-.63,.9-.6,2.34-.5,3.4,.13,.86,.33,1.96,.97,2.69,.21,.22,.52,.46,.82,.35,.09-.05,.16-.12,.21-.2,.03-.03,.05-.06,.06-.09,.04,.02,.09,.05,.14,.06,.17,.07,.37,.12,.57,.14h0c.26,.04,.52,.04,.74,.04,.58-.03,1.17-.08,1.75-.17h.02c.09-.01,.18-.03,.26-.04v-1.71c-.21-.02-.43-.03-.63-.04Zm-.98,2.55c-1.03-.03-2.31-.44-3.3-.03-.05,.02-.11,.05-.15,.07-.01-.05-.03-.11-.04-.16-.07-.28-.2-.6-.37-.94-.4-.81-1.01-1.71-1.57-2.34-.44-.51-.85-.86-1.1-.87-.51,.85-.13,2.02,.42,2.87,.51,.73,1.17,2.06,2.19,2.23,.1,.02,.2,.02,.32,.01h.01s.06,.06,.1,.1c.84,.79,3.45,.66,4.22,.36,.3-.09,.61-.2,.89-.35v-.77c-.53-.09-1.11-.11-1.61-.18Zm-.36,3.77s-.04,.03-.06,.05c.03,.01,.06,.04,.09,.06-.02-.03-.03-.09-.03-.11Zm-2.38-.79c-.94-.22-1.85-.6-2.83-.58-.07,0-.15,0-.24,.02-.06,0-.13,.02-.19,.05,.03-.05,.04-.1,.05-.16,.17-.53-.02-1.27-.4-2h0c-.43-.82-1.08-1.63-1.7-2.08-.31-.24-.6-.39-.86-.4-.85,.99,.9,4.79,2.38,4.97,.06,.01,.12,.02,.18,0,0,.05,0,.1,.02,.14,.36,1.32,3.23,1.66,4.34,1.48,.57-.07,1.2-.27,1.57-.6-.57-.47-1.59-.64-2.32-.84Zm-.67-10.03s.02,0,.02,.02c.03-.02,.02-.02-.02-.02Zm-.58,12.92c-.11-.05-.24-.11-.37-.15-1.09-.39-2.86-.6-3.93-.28-.05,.02-.11,.03-.16,.05,.01-.07,.01-.14,.01-.21-.04-1.71-1.99-4.77-2.98-5.16,0,.01-.01,.03-.03,.06-.41,1.03-.04,2.4,.29,3.42,.33,.81,.78,1.84,1.56,2.39,.09,.06,.19,.12,.3,.16,.05,.02,.1,.04,.15,.05,0,.08,.04,.16,.07,.22,.2,.41,.75,.63,1.16,.74,1.49,.32,3.39,.14,4.4-.97-.09-.12-.25-.23-.47-.33Zm-7.45-5.77s.01,0,.02,.01c.01-.02,.01-.01-.02-.01ZM16.56,65.14c.02,.11,.04,.23,.05,.34,.03-.17,.06-.33,.09-.49-.04,.05-.1,.1-.14,.15ZM74.5,15.1c-1.03-.03-2.31-.44-3.3-.03-.05,.02-.11,.05-.15,.07-.01-.05-.03-.11-.04-.16-.07-.28-.2-.6-.37-.94-.4-.81-1.01-1.71-1.57-2.34-.44-.51-.85-.86-1.1-.87-.51,.85-.13,2.02,.42,2.87,.51,.73,1.17,2.06,2.19,2.23,.1,.02,.2,.02,.32,.01h.01s.06,.06,.1,.1c.84,.79,3.45,.66,4.22,.36,.3-.09,.61-.2,.89-.35v-.77c-.53-.09-1.11-.11-1.61-.18Zm-.36,3.77s-.04,.03-.06,.05c.03,.01,.06,.04,.09,.06-.02-.03-.03-.09-.03-.11Zm-2.38-.79c-.94-.22-1.85-.6-2.83-.58-.07,0-.15,0-.24,.02-.06,0-.13,.02-.19,.05,.03-.05,.04-.1,.05-.16,.17-.53-.02-1.27-.4-2h0c-.43-.82-1.08-1.63-1.7-2.08-.31-.24-.6-.39-.86-.4-.85,.99,.9,4.79,2.38,4.97,.06,.01,.12,.02,.18,0,0,.05,0,.1,.02,.14,.36,1.32,3.23,1.66,4.34,1.48,.57-.07,1.2-.27,1.57-.6-.57-.47-1.59-.64-2.32-.84Zm-.67-10.03s.02,0,.02,.02c.03-.02,.02-.02-.02-.02Zm-.58,12.92c-.11-.05-.24-.11-.37-.15-1.09-.39-2.86-.6-3.93-.28-.05,.02-.11,.03-.16,.05,.01-.07,.01-.14,.01-.21-.04-1.71-1.99-4.77-2.98-5.16,0,.01-.01,.03-.03,.06-.41,1.03-.04,2.4,.29,3.42,.33,.81,.78,1.84,1.56,2.39,.09,.06,.19,.12,.3,.16,.05,.02,.1,.04,.15,.05,0,.08,.04,.16,.07,.22,.2,.41,.75,.63,1.16,.74,1.49,.32,3.39,.14,4.4-.97-.09-.12-.25-.23-.47-.33Zm-7.45-5.77s.01,0,.02,.01c.01-.02,.01-.01-.02-.01ZM16.56,65.14c.02,.11,.04,.23,.05,.34,.03-.17,.06-.33,.09-.49-.04,.05-.1,.1-.14,.15ZM74.5,15.1c-1.03-.03-2.31-.44-3.3-.03-.05,.02-.11,.05-.15,.07-.01-.05-.03-.11-.04-.16-.07-.28-.2-.6-.37-.94-.4-.81-1.01-1.71-1.57-2.34-.44-.51-.85-.86-1.1-.87-.51,.85-.13,2.02,.42,2.87,.51,.73,1.17,2.06,2.19,2.23,.1,.02,.2,.02,.32,.01h.01s.06,.06,.1,.1c.84,.79,3.45,.66,4.22,.36,.3-.09,.61-.2,.89-.35v-.77c-.53-.09-1.11-.11-1.61-.18Zm-.36,3.77s-.04,.03-.06,.05c.03,.01,.06,.04,.09,.06-.02-.03-.03-.09-.03-.11Zm-2.38-.79c-.94-.22-1.85-.6-2.83-.58-.07,0-.15,0-.24,.02-.06,0-.13,.02-.19,.05,.03-.05,.04-.1,.05-.16,.17-.53-.02-1.27-.4-2h0c-.43-.82-1.08-1.63-1.7-2.08-.31-.24-.6-.39-.86-.4-.85,.99,.9,4.79,2.38,4.97,.06,.01,.12,.02,.18,0,0,.05,0,.1,.02,.14,.36,1.32,3.23,1.66,4.34,1.48,.57-.07,1.2-.27,1.57-.6-.57-.47-1.59-.64-2.32-.84Zm-.67-10.03s.02,0,.02,.02c.03-.02,.02-.02-.02-.02Zm-.58,12.92c-.11-.05-.24-.11-.37-.15-1.09-.39-2.86-.6-3.93-.28-.05,.02-.11,.03-.16,.05,.01-.07,.01-.14,.01-.21-.04-1.71-1.99-4.77-2.98-5.16,0,.01-.01,.03-.03,.06-.41,1.03-.04,2.4,.29,3.42,.33,.81,.78,1.84,1.56,2.39,.09,.06,.19,.12,.3,.16,.05,.02,.1,.04,.15,.05,0,.08,.04,.16,.07,.22,.2,.41,.75,.63,1.16,.74,1.49,.32,3.39,.14,4.4-.97-.09-.12-.25-.23-.47-.33Zm-7.45-5.77s.01,0,.02,.01c.01-.02,.01-.01-.02-.01ZM16.56,65.14c.02,.11,.04,.23,.05,.34,.03-.17,.06-.33,.09-.49-.04,.05-.1,.1-.14,.15ZM74.5,15.1c-1.03-.03-2.31-.44-3.3-.03-.05,.02-.11,.05-.15,.07-.01-.05-.03-.11-.04-.16-.07-.28-.2-.6-.37-.94-.4-.81-1.01-1.71-1.57-2.34-.44-.51-.85-.86-1.1-.87-.51,.85-.13,2.02,.42,2.87,.51,.73,1.17,2.06,2.19,2.23,.1,.02,.2,.02,.32,.01h.01s.06,.06,.1,.1c.84,.79,3.45,.66,4.22,.36,.3-.09,.61-.2,.89-.35v-.77c-.53-.09-1.11-.11-1.61-.18Zm-.36,3.77s-.04,.03-.06,.05c.03,.01,.06,.04,.09,.06-.02-.03-.03-.09-.03-.11Zm-2.38-.79c-.94-.22-1.85-.6-2.83-.58-.07,0-.15,0-.24,.02-.06,0-.13,.02-.19,.05,.03-.05,.04-.1,.05-.16,.17-.53-.02-1.27-.4-2h0c-.43-.82-1.08-1.63-1.7-2.08-.31-.24-.6-.39-.86-.4-.85,.99,.9,4.79,2.38,4.97,.06,.01,.12,.02,.18,0,0,.05,0,.1,.02,.14,.36,1.32,3.23,1.66,4.34,1.48,.57-.07,1.2-.27,1.57-.6-.57-.47-1.59-.64-2.32-.84Zm-.67-10.03s.02,0,.02,.02c.03-.02,.02-.02-.02-.02Zm-.58,12.92c-.11-.05-.24-.11-.37-.15-1.09-.39-2.86-.6-3.93-.28-.05,.02-.11,.03-.16,.05,.01-.07,.01-.14,.01-.21-.04-1.71-1.99-4.77-2.98-5.16,0,.01-.01,.03-.03,.06-.41,1.03-.04,2.4,.29,3.42,.33,.81,.78,1.84,1.56,2.39,.09,.06,.19,.12,.3,.16,.05,.02,.1,.04,.15,.05,0,.08,.04,.16,.07,.22,.2,.41,.75,.63,1.16,.74,1.49,.32,3.39,.14,4.4-.97-.09-.12-.25-.23-.47-.33Zm-7.45-5.77s.01,0,.02,.01c.01-.02,.01-.01-.02-.01ZM16.56,65.14c.02,.11,.04,.23,.05,.34,.03-.17,.06-.33,.09-.49-.04,.05-.1,.1-.14,.15ZM74.14,18.87s-.04,.03-.06,.05c.03,.01,.06,.04,.09,.06-.02-.03-.03-.09-.03-.11Zm-2.38-.79c-.94-.22-1.85-.6-2.83-.58-.07,0-.15,0-.24,.02-.06,0-.13,.02-.19,.05,.03-.05,.04-.1,.05-.16,.17-.53-.02-1.27-.4-2h0c-.43-.82-1.08-1.63-1.7-2.08-.31-.24-.6-.39-.86-.4-.85,.99,.9,4.79,2.38,4.97,.06,.01,.12,.02,.18,0,0,.05,0,.1,.02,.14,.36,1.32,3.23,1.66,4.34,1.48,.57-.07,1.2-.27,1.57-.6-.57-.47-1.59-.64-2.32-.84Zm-.67-10.03s.02,0,.02,.02c.03-.02,.02-.02-.02-.02Zm-.58,12.92c-.11-.05-.24-.11-.37-.15-1.09-.39-2.86-.6-3.93-.28-.05,.02-.11,.03-.16,.05,.01-.07,.01-.14,.01-.21-.04-1.71-1.99-4.77-2.98-5.16,0,.01-.01,.03-.03,.06-.41,1.03-.04,2.4,.29,3.42,.33,.81,.78,1.84,1.56,2.39,.09,.06,.19,.12,.3,.16,.05,.02,.1,.04,.15,.05,0,.08,.04,.16,.07,.22,.2,.41,.75,.63,1.16,.74,1.49,.32,3.39,.14,4.4-.97-.09-.12-.25-.23-.47-.33Zm-7.45-5.77s.01,0,.02,.01c.01-.02,.01-.01-.02-.01ZM16.56,65.14c.02,.11,.04,.23,.05,.34,.03-.17,.06-.33,.09-.49-.04,.05-.1,.1-.14,.15ZM74.14,18.87s-.04,.03-.06,.05c.03,.01,.06,.04,.09,.06-.02-.03-.03-.09-.03-.11Zm-3.64,2.1c-.11-.05-.24-.11-.37-.15-1.09-.39-2.86-.6-3.93-.28-.05,.02-.11,.03-.16,.05,.01-.07,.01-.14,.01-.21-.04-1.71-1.99-4.77-2.98-5.16,0,.01-.01,.03-.03,.06-.41,1.03-.04,2.4,.29,3.42,.33,.81,.78,1.84,1.56,2.39,.09,.06,.19,.12,.3,.16,.05,.02,.1,.04,.15,.05,0,.08,.04,.16,.07,.22,.2,.41,.75,.63,1.16,.74,1.49,.32,3.39,.14,4.4-.97-.09-.12-.25-.23-.47-.33Zm-7.45-5.77s.01,0,.02,.01c.01-.02,.01-.01-.02-.01ZM16.56,65.14c.02,.11,.04,.23,.05,.34,.03-.17,.06-.33,.09-.49-.04,.05-.1,.1-.14,.15ZM74.79,18.1c.55,.41,.75,1.06,.04,1.78-.79,.72-1.73,1.17-2.72,1.26,0,0,0,.02,0,.03,.04,1.73-2.49,2.96-4,2.76-1.15-.12-2-.87-2.61-1.75-.07-.11-.15-.24-.21-.36-11.49,11.28-23.35,22.18-35.83,32.37-.88,.79-1.76,1.6-2.62,2.42,2.51-1.51,5.26-2.63,8.02-3.49,3.8-1.19,7.04-3.27,10.34-5.57-2.07,3.65-5.63,6.45-9.63,7.72-3.55,1.08-6.93,2.16-10.51,3.07-.25,.24-.49,.48-.73,.73-3,2.97-5.68,6.45-9.18,8.9,5.86-1.46,11.56-3.15,17.11-5.5,6.09-2.48,11.75-5.7,17.38-9.17-8.95,9.45-22.06,15.09-35.08,15.08-.26,.17-.52,.33-.79,.48-.16,.1-.32,.19-.48,.27h62.83V17.62c-.42,.22-.87,.38-1.33,.47Zm-.65,.78s-.04,.03-.06,.05c.03,.01,.06,.04,.09,.06-.02-.03-.03-.09-.03-.11Zm-3.64,2.1c-.11-.05-.24-.11-.37-.15-1.09-.39-2.86-.6-3.93-.28-.05,.02-.11,.03-.16,.05,.01-.07,.01-.14,.01-.21-.04-1.71-1.99-4.77-2.98-5.16,0,.01-.01,.03-.03,.06-.41,1.03-.04,2.4,.29,3.42,.33,.81,.78,1.84,1.56,2.39,.09,.06,.19,.12,.3,.16,.05,.02,.1,.04,.15,.05,0,.08,.04,.16,.07,.22,.2,.41,.75,.63,1.16,.74,1.49,.32,3.39,.14,4.4-.97-.09-.12-.25-.23-.47-.33Zm-7.45-5.77s.01,0,.02,.01c.01-.02,.01-.01-.02-.01ZM16.56,65.14c.02,.11,.04,.23,.05,.34,.03-.17,.06-.33,.09-.49-.04,.05-.1,.1-.14,.15ZM63.05,15.2s.01,0,.02,.01c.01-.02,.01-.01-.02-.01ZM16.56,65.14c.02,.11,.04,.23,.05,.34,.03-.17,.06-.33,.09-.49-.04,.05-.1,.1-.14,.15ZM63.05,15.2s.01,0,.02,.01c.01-.02,.01-.01-.02-.01ZM16.56,65.14c.02,.11,.04,.23,.05,.34,.03-.17,.06-.33,.09-.49-.04,.05-.1,.1-.14,.15ZM63.05,15.2s.01,0,.02,.01c.01-.02,.01-.01-.02-.01ZM16.56,65.14c.02,.11,.04,.23,.05,.34,.03-.17,.06-.33,.09-.49-.04,.05-.1,.1-.14,.15Zm0,0c.02,.11,.04,.23,.05,.34,.03-.17,.06-.33,.09-.49-.04,.05-.1,.1-.14,.15Zm0,0c.02,.11,.04,.23,.05,.34,.03-.17,.06-.33,.09-.49-.04,.05-.1,.1-.14,.15Zm0,0c.02,.11,.04,.23,.05,.34,.03-.17,.06-.33,.09-.49-.04,.05-.1,.1-.14,.15Zm0,0c.02,.11,.04,.23,.05,.34,.03-.17,.06-.33,.09-.49-.04,.05-.1,.1-.14,.15Z"/><g><path class="cls-1" d="M13.28,69.12c-4.08,2.3-8.69,3.53-13.28,3.66,3.51-.45,6.95-1.46,10.09-3.05,.39-.2,.77-.4,1.15-.62h2.04Z"/><path class="cls-1" d="M16.71,64.99c-.03,.16-.06,.33-.09,.49-.02-.11-.04-.23-.05-.34,.05-.05,.1-.1,.14-.15Z"/><path class="cls-1" d="M16.71,64.99c-.03,.16-.06,.33-.09,.49-.02-.11-.04-.23-.05-.34,.05-.05,.1-.1,.14-.15Z"/><path class="cls-1" d="M68.5,17.57c-.05,.13-.14,.24-.26,.33-.03,0-.06,.02-.09,0,0,.05,0,.1,.02,.14,.05,0,.09,0,.13-.02,.19-.13,.31-.32,.39-.51-.06,0-.13,.02-.19,.05Z"/><path class="cls-1" d="M68,17.77s-.03,.09-.03,.13c.06,.01,.12,.02,.18,0-.02-.02-.02-.05-.02-.07,.07-.13,.2-.22,.36-.26,.03-.05,.04-.1,.05-.16-.21,.05-.42,.14-.55,.36Z"/><path class="cls-1" d="M68.5,17.56c-.05,.13-.14,.24-.26,.33-.03,0-.06,.02-.09,0-.02-.02-.02-.05-.02-.08,.07-.14,.2-.22,.36-.26Z"/><path class="cls-1" d="M77.84,14.87c-.14-.2-.39-.35-.72-.42-.34-.05-.67-.08-1-.1v.93c.26,.04,.51,.1,.73,.2,.03-.03,.05-.05,.07-.09,0,.04,.04,.12,.07,.14-.05-.02-.09-.04-.14-.06-.19,.23-.44,.41-.73,.57v1.57c.56-.29,1.07-.69,1.47-1.16,.48-.52,.59-1.18,.25-1.6Zm-4.49-.41c.26,.04,.52,.04,.74,.04,.58-.03,1.17-.08,1.75-.17-.83-.04-1.66,.01-2.48,.12Zm-2.6,.88c.1-.07,.2-.14,.31-.2-.01-.05-.03-.11-.04-.16-.14,.06-.27,.14-.39,.27-.11,.24-.11,.47-.04,.67,.1,.02,.2,.02,.32,.01h.01c-.13-.17-.19-.36-.16-.6Z"/><path class="cls-1" d="M66.46,13.33c.28,.89,.91,1.6,1.7,2.08-.43-.82-1.08-1.62-1.7-2.08Zm4.75,1.77v-.03c-.05,.02-.11,.05-.15,.07,.07,.36,.04,.64-.14,.79,.03,.04,.06,.07,.1,.11,.28-.23,.22-.62,.2-.93Z"/><path class="cls-1" d="M70.91,15.93c-.13-.16-.19-.36-.16-.59,.1-.08,.2-.14,.3-.2,.08,.36,.04,.64-.14,.79Z"/><path class="cls-1" d="M72.68,13.13c.06-.05,.13-.09,.21-.11,0-.2-.02-.41-.04-.63-.16,.14-.3,.31-.43,.48-.22,.31-.48,.7-.32,1.09,.1,.15,.26,.29,.48,.4,.03-.03,.05-.06,.06-.09-.17-.09-.31-.2-.41-.37-.08-.29,.19-.58,.45-.77Zm6.39-1.23h-.02c-.09-.05-.16-.1-.24-.14-.12-.07-.25-.13-.37-.19-.69-.32-1.43-.52-2.19-.56-.04,0-.09,0-.14,0v1.58c.99,.06,2.08,.21,2.83,.76,.04-.02,.07-.05,.08-.07-.02,.02-.02,.05-.01,.07-.02,.06,.02,.07-.06,0,0,0-.01,0-.01,0-.17,.14-.57,.35-.82,.43-.65,.23-1.32,.4-2.01,.51v.72c.59,0,1.18-.05,1.72-.14,1.32-.24,2.34-.75,2.33-1.62-.06-.62-.62-1.06-1.1-1.35Z"/><path class="cls-1" d="M72.89,13.02c.01,.51-.07,.95-.25,1.25,.04,.02,.09,.05,.14,.06,.1-.17,.16-.37,.21-.56,.06-.29,.13-.58,.17-.87-.09,.03-.18,.07-.27,.12Zm-3.82-1.32c.2,.83,.64,1.6,1.3,2.13,.09,.07,.18,.14,.27,.22-.4-.81-1.01-1.71-1.57-2.34Z"/><path class="cls-1" d="M72.89,13.01c0,.51-.07,.95-.25,1.25-.17-.08-.31-.2-.41-.37-.08-.3,.19-.58,.45-.76,.07-.05,.14-.08,.21-.11Z"/><path class="cls-1" d="M65.19,21.19s-.01,.04,0,.05c.05,.02,.1,.04,.15,.05-.01-.03-.01-.05-.01-.07,.09-.3,.34-.5,.71-.64,.01-.07,.01-.14,.01-.21-.43,.22-.74,.5-.86,.82Z"/><path class="cls-1" d="M66.04,20.58c-.02,.28-.1,.51-.26,.66-.14,.07-.29,.09-.44,.05,0,.08,.04,.16,.07,.22,.16-.02,.31-.07,.46-.15,.25-.24,.31-.54,.33-.84-.05,.02-.11,.03-.16,.05Z"/><path class="cls-1" d="M66.04,20.58c-.02,.28-.11,.51-.26,.67-.14,.08-.29,.08-.44,.05,0-.02,0-.05,0-.08,.08-.3,.34-.5,.71-.64Z"/><path class="cls-1" d="M84.33,8.96c-.18-.47-.61-.75-1.03-.94h0c-.18-.09-.37-.14-.52-.2-.4-.12-.8-.21-1.22-.25h0c-.51-.07-1.02-.06-1.54,.02-.05,.01-.11,.02-.17,.03-.05,0-.11,.02-.16,.03-.21,.04-.42,.11-.64,.19-.61,.24-1.17,.6-1.63,1.07-.14,.13-.27,.27-.4,.42-.06,.07-.12,.14-.18,.22-.05,.05-.09,.11-.13,.17-.07,.09-.13,.18-.19,.28-.05,.07-.09,.14-.13,.21-.05,.09-.1,.18-.14,.27-.05,.09-.09,.18-.13,.27v.73c.42,.43,1.6,.54,2.94,.41h.02c2.6-.27,5.81-1.44,5.26-2.94Zm-1.11,.42s-.02,0-.04-.02c-.16,.25-.58,.51-.88,.7-.68,.37-2.39,1.17-3.86,1.51-.98,.22-1.85,.25-2.24-.21,0-.12,0-.24,.05-.35,.19-.5,.85-.85,1.3-1.08,1.73-.7,3.95-1.27,5.63-.57,.02-.03,.03-.05,.04-.07,0,.02,0,.06,0,.09Z"/><path class="cls-1" d="M76.78,5.54c-.09-.17-.2-.32-.34-.43-.1-.09-.2-.16-.32-.21v3.41c.07,.19,.17,.37,.32,.53,.11,.07,.24,.11,.35,.12,.03-.07,.05-.16,.06-.23,.26-1.01,.39-2.34-.07-3.19Z"/><path class="cls-1" d="M76.79,8.96c-.05,.2-.11,.37-.17,.52-.05,.11-.1,.23-.15,.34-.03,.06-.06,.12-.09,.18-.09,.16-.17,.31-.27,.46v-2.15c.07,.19,.17,.37,.32,.53,.11,.07,.24,.11,.35,.12Z"/><path class="cls-1" d="M82.42,1.56c-.1-.7-.41-1.31-1.16-1.54-1.03-.14-1.84,.66-2.5,1.27-1.08,1.05-1.9,2.38-2.33,3.82-.11,.34-.2,.69-.26,1.05-.02,.17-.04,.34-.06,.51v1.63c.07,.19,.17,.37,.32,.53,.11,.07,.24,.11,.35,.12,.21,.04,.43,0,.63-.05,.15-.04,.28-.08,.42-.13,.65-.21,1.26-.52,1.82-.92h0c.06-.04,.11-.09,.17-.12,.06-.04,.12-.1,.18-.14,.74-.59,1.37-1.35,1.78-2.2h0c.18-.37,.33-.75,.43-1.15h0c.02-.06,.03-.11,.04-.16,.05-.19,.09-.38,.11-.58,.02-.16,.04-.34,.05-.52h0c.04-.46,.06-.96-.01-1.43Zm-5.57,7.17c-.12,.02-.23,0-.34-.02-.6-.62-.37-1.86,.26-3.16,1.01-2.1,3.06-4.37,4.22-4.35,.7,1.66-2.02,7.43-4.15,7.54Z"/><path class="cls-1" d="M76.07,8.18c-.09,.99-.39,2.1-.86,2.9-.7,.1-1.32,.41-1.85,.84-.03,.03-.07,.05-.11,.09,0-.12,.02-.24,0-.35h0c.02-.3,0-.58-.04-.87,0,0,.01-.01,0-.02,.19-1.78,1.58-4.41,2.46-4.76,.2,.2,.33,.55,.38,.97,.04,.35,.05,.76,0,1.19Z"/><path class="cls-1" d="M77.42,8.91c-.14,.13-.27,.27-.4,.42-.06,.07-.12,.14-.18,.22-.05,.05-.09,.11-.13,.17-.07,.09-.13,.18-.19,.28-.05,.07-.09,.14-.13,.21-.05,.09-.1,.18-.14,.27-.05,.09-.09,.18-.13,.27v-.31c.1-.15,.19-.3,.27-.46,.03-.06,.06-.12,.09-.18,.05-.11,.1-.22,.15-.34,.05-.15,.11-.32,.17-.52,.21,.04,.43,0,.63-.05Z"/><path class="cls-1" d="M86.73,4.66c-.15-.47-.47-.63-.67-.73-.55-.22-1.05-.28-1.56-.26-.25,.01-.51,.04-.77,.07-.24,.03-.47,.09-.69,.15-.17,.05-.34,.12-.49,.19-.11,.04-.21,.1-.31,.16h-.01c-1.26,.7-2.18,1.98-2.54,3.38,0,.01,0,.03,0,.04-.01,.06-.02,.13-.02,.2h0c0,.1,.01,.2,.07,.31,.13,.18,.35,.21,.52,.24,1.01,.04,2.07-.07,3.04-.39,.22-.07,.43-.15,.64-.25,1.02-.5,1.95-1.1,2.61-2.12,.11-.21,.3-.5,.19-1Zm-1.22,.35s-.02-.01-.03-.02c-.03-.02-.07-.03-.1-.04-.12,.14-.35,.32-.58,.47-1.1,.64-2.14,1.47-3.24,2.15h0c-.27,.18-.55,.34-.83,.48-.29,.11-.67,.22-.87,.03-.03-.12-.03-.24-.02-.35,0-.04,0-.07,.01-.11,.11-.94,1.14-1.74,1.95-2.23h0c.1-.06,.2-.12,.29-.18,.92-.53,2.37-.68,3.3-.26,.02-.01,.02-.02,.03-.03,.07-.07,.05-.11,.07,.05,0,.02,.01,.03,.02,.04,.05,.04,.04,.07,0,0Z"/><path class="cls-1" d="M85.74,.8c-.45-.55-1.13-.46-1.63-.36-.72,.14-1.3,.56-1.7,1.12-.46,.63-.7,1.43-.71,2.21,.05,.25,.28,.41,.49,.47,.01,0,.02,0,.03,0t.01,0c.66,.18,1.41,.06,1.98-.35,.1-.07,.19-.15,.28-.22,.68-.56,1.18-1.13,1.42-2.13,.02-.16,.03-.46-.18-.74Zm-1.1,1.04c-.16,.51-.57,1.12-.9,1.48-.19,.21-.43,.43-.69,.58-.16,.1-.32,.17-.49,.19-.09,.02-.19,.02-.28,0h-.03c-.2-.02-.37-.17-.38-.35,.01-.32,.27-.57,.57-.75,.06-.04,.13-.08,.2-.11,.71-.33,1.35-.73,2.01-1.04,.04-.12,.06-.24,.06-.34-.01-.05,0-.07,0-.04,0,.01,0,.02,0,.04,0,.03,.02,.06,.04,.1,.09,.11,.15,.12,.13,.13-.08,.03-.16,.07-.24,.11Z"/></g></g><g><g><path class="cls-2" d="M140.3,10.16c-.12-.42-.29-.83-.49-1.2-.71-1.27-1.96-2.18-3.33-2.72-1.35-.51-2.81-.69-4.26-.76-5.95-.27-11.87,1.22-17.47,3.23-4.33,1.57-8.61,3.47-12.18,6.39-1.27,1.05-2.5,2.28-3.08,3.82-.56,1.54-.37,3.47,.86,4.58,.34,.29,.76,.51,1.2,.51,.46-.02,.9-.34,.95-.78,.02-.46-.34-.86-.56-1.25-.61-1.17,.1-2.62,.95-3.62,1.54-1.79,3.57-3.06,5.63-4.18,5.55-3.03,11.62-5.11,17.86-6.14,2.67-.44,5.38-.69,8.05-.27,1,.17,2.06,.44,2.74,1.17,.86,.93,.95,2.35,.81,3.6-.46,3.72-2.94,6.88-5.51,9.44-.69,.71-1.37,1.37-2.03,1.98-.71,.61-1.42,1.22-2.15,1.84-.69,.54-1.39,1.08-2.13,1.61-2.2,1.61-4.45,3.11-6.92,4.28,.98-4.99,2.1-9.93,3.38-14.83,.07-.22,.12-.44,.07-.66-.05-.34-.32-.59-.59-.78-.51-.34-1.3-.46-1.69,0-.15,.2-.22,.44-.27,.66-1.35,5.31-2.54,10.64-3.67,15.98-.02,.12-.05,.22-.1,.32-.15,.2-.39,.24-.61,.34-.44,.2-.71,.69-.66,1.15,.07,.46,.44,.88,.91,.95-.24,1.86-.42,3.74-.61,5.6-.05,.61-.12,1.25,.17,1.79,.12,.27,.37,.49,.64,.59,.37,.12,.78-.02,1.1-.27,.46-.37,.73-.93,.88-1.52,.12-.59,.1-1.2,.1-1.81-.02-1.1-.05-2.23,.1-3.33,.05-.37,.1-.76,.34-1.08,.2-.24,.51-.42,.83-.54,1.52-.66,3.16-1.08,4.82-1.22,.83-.07,1.66-.07,2.52,0,.71,.05,1.57,.1,2.18,.49,.15,.1,.29,.22,.39,.37,.34,.54,.49,1.37,.37,1.98-.39,1.64-1,2.98-2.06,4.33-1.69,2.2-4.5,3.67-7,4.92-3.47,1.74-7.07,3.25-11.01,3.4-.54,.02-1.13,.02-1.57,.34-.24,.2-.44,.56-.22,.78,.05,.07,.15,.15,.24,.17,1.27,.22,2.08,.22,3.13,.12,2.28-.24,4.53-.78,6.68-1.57,2.06-.73,4.09-1.66,5.97-2.79,1.17-.69,2.3-1.44,3.33-2.3,1.05-.86,2.06-1.81,2.89-2.89,.88-1.13,1.42-2.47,1.69-3.87,.27-1.39,.22-2.86-.73-3.94-.64-.71-1.52-1.15-2.45-1.39-.46-.12-.95-.22-1.44-.27-.47-.05-1.03-.02-1.44-.15,.37-.44,1.05-.73,1.52-1.08,.76-.54,1.49-1.1,2.2-1.66,.78-.61,1.54-1.25,2.28-1.88,.73-.64,1.47-1.35,2.2-2.06,.71-.69,1.39-1.39,2.03-2.13,.64-.73,1.22-1.52,1.76-2.32,.49-.71,.95-1.47,1.35-2.23,.39-.76,.73-1.57,.98-2.4,.44-1.52,.59-3.3,.15-4.87Zm-2.79-1.76l-.02-.02h.02v.02Z"/><path class="cls-2" d="M175.07,18.82c-.2-.1-.39-.15-.59-.15-.15,0-.27,.02-.39,.1-.22,.15-.37,.37-.44,.64-.07,.24-.15,.51-.2,.76-.07,.29-.1,.54-.1,.73l-.05,.02c-.07,.07-.07,.17,0,.29v.12c0,.12,.05,.24,.17,.37s.27,.22,.42,.29c.12,.02,.24,.05,.34,.05h.12c.15,0,.22-.1,.22-.24v-.32c.2-.24,.34-.46,.47-.64,.12-.2,.24-.39,.34-.59,.12-.2,.2-.42,.22-.66,.02-.34-.15-.59-.54-.78Z"/><g><path class="cls-2" d="M189.36,29.12l.05,.1h.02l-.07-.1Z"/><path class="cls-2" d="M245.95,25.93c0-.4-.2-.79-.5-1.07-.32-.29-.72-.46-1.13-.58-1.44-.41-2.97-.21-4.44,.05-2.69,.48-5.35,1.13-7.98,1.86-1.21,.24-2.42,.68-3.61,1.02-1.32,.37-2.64,.73-3.95,1.13-1.29,.4-2.58,.81-3.88,1.16-.74,.2-1.49,.37-2.24,.5-.25,.04-.53,0-.68-.2-.1-.14-.12-.33-.12-.5-.06-1.26,.15-2.98-1.06-3.79,.12-.12,.17-.27,.2-.37,.05-.15,.07-.44-.2-.73-.1-.15-.22-.27-.27-.34-.73-.59-1.49-.98-2.3-1.22-.66-.22-1.32-.34-2.03-.34-.12,0-.27,.02-.42,.02-.76,.02-1.54,.17-2.37,.44-.83,.29-1.57,.64-2.2,1.08-.24,.17-.54,.37-.83,.61-.12,.05-.24,.12-.34,.2-1.44,.95-2.89,1.81-4.43,2.62-.76,.39-1.54,.73-2.32,1.08-.81,.32-1.62,.64-2.45,.86-1.66,.46-3.43,.81-5.14,.56-.59-.07-1.15-.24-1.61-.61-.17-.15-.34-.32-.44-.54-.05-.2-.05-.42-.02-.61,.17-1.47,1.35-2.67,2.54-3.45,.07-.05,.15-.1,.22-.12,.22-.1,.44-.17,.66-.15,.27,.02,.51,.17,.69,.37,.32,.34,.42,.78,.71,1.13,.27,.32,.66,.51,1.1,.56,.24,.02,.51,0,.73-.12,.22-.12,.39-.34,.42-.59,.05-.32-.15-.61-.29-.88-.15-.32-.34-.59-.54-.86-.29-.42-.66-.76-1.1-1.05-.42-.29-.86-.51-1.35-.64-.29-.1-.61-.12-.93-.12-.22,0-.47,.02-.69,.07-.56,.12-1.08,.32-1.57,.64s-.91,.71-1.3,1.15c-.2,.24-.39,.49-.64,.69-.17,.12-.34,.22-.51,.29-.59,.29-1.2,.54-1.81,.81-.66,.27-1.3,.54-1.93,.81-.42,.17-.83,.34-1.27,.51-.95,.39-1.91,.78-2.89,1.15-.83,.32-1.66,.56-2.5,.86-.81,.29-1.64,.56-2.47,.76-.83,.22-1.66,.44-2.54,.46-.05,0-.1,0-.15-.02s-.1-.1-.1-.15c-.39-1,.12-2.25,.51-3.16,.1-.24,.22-.49,.34-.73,.05-.12,.12-.24,.2-.37,.07-.12,.12-.32,.22-.42,.05-.07,.1-.17,.12-.27,.15-.32,.12-.69-.1-.98-.17-.2-.37-.34-.51-.44-.22-.15-.49-.22-.83-.22-.49,0-.73,.24-.86,.46l-.24,.39-.15,.27c-.64,.42-1.25,.76-1.96,1.15l-1.17,.64-1.13,.64c-.59,.34-1.17,.66-1.79,1l-.56,.29-.39,.2c-.71,.34-1.39,.69-2.1,.98-.61,.27-1.22,.51-1.86,.73-.64,.24-1.25,.46-1.91,.61-.2,.05-.42,.1-.61,.15-.2,.02-.42,.05-.59-.05-.22-.12-.29-.39-.34-.64-.12-.66-.1-1.35,0-2.01,.1-.64,.2-1.27,.39-1.86,.02-.12,.07-.24,.12-.34,.12-.29,.37-.51,.56-.73,.1-.12,.2-.22,.29-.34,.07-.07,.12-.15,.17-.2,.02-.05,.17-.17,.17-.22l.44-.51c.32-.39,.66-.76,.98-1.15,.24-.29,.46-.56,.66-.81,.22-.27,.44-.54,.66-.83,.34-.44,.71-.88,1.08-1.35l.22-.29s.1-.1,.17-.24c2.2-.22,4.5-.44,6.7-.05,.27,.05,.54,.1,.83,.1,.27-.02,.54-.12,.73-.34,.27-.34,.17-.88-.12-1.22-.29-.32-.73-.49-1.17-.61-1.52-.39-3.11-.29-4.65-.29-.17-.02-.34,.02-.46,0,.1-.15,.2-.29,.32-.44,.12-.17,.24-.34,.37-.51l.37-.54c.29-.39,.59-.81,.88-1.22l.2-.32c.32-.46,.64-.95,.93-1.47,.29-.49,.56-.95,.81-1.39,.24-.44,.49-.95,.71-1.54,.15-.37,.22-.76,.29-1.22,.07-.51-.07-1-.42-1.44-.44-.46-.91-.71-1.42-.81-.17,0-.29-.02-.42-.02-.42,0-.78,.1-1.15,.29-.37,.15-.73,.42-1.08,.73-.27,.29-.54,.59-.78,.86-.42,.46-.78,.91-1.15,1.37-.34,.44-.71,.93-1.03,1.42-.39,.56-.76,1.13-1.13,1.69-.42,.66-.78,1.22-1.13,1.84-.59,1.03-1.25,2.25-1.91,3.52-.02,.05-.46,.07-.54,.1-.17,.02-.34,.07-.51,.1-.42,.07-.83,.12-1.22,.2-.73,.15-1.44,.29-2.15,.44-.51,.12-1.03,.54-.81,1.13,.2,.54,.69,1.03,1.3,1.08,.22,0,.47-.05,.71-.07,.64-.15,1.35-.39,2.01-.39l-.2,.46c-.12,.27-.22,.51-.32,.78s-.22,.51-.32,.76c-.24,.64-.49,1.3-.69,1.91-.1,.32-.2,.61-.27,.93-2.25,1.13-4.79,1.94-7.34,1.65-1.98-.22-3.91-1.13-5.18-2.67-.32-.38-.59-.81-.99-1.11s-.95-.46-1.39-.23c-.26,.14-.46,.4-.5,.7-.05,.32,.1,.7,.33,.93-.09-.1-.85,.37-.96,.44-.3,.2-.57,.44-.83,.7-.5,.5-.91,1.09-1.2,1.75-.37,.86-.51,1.85-.23,2.75s1.05,1.66,1.98,1.8c.68,.1,1.37-.13,1.95-.49,.69-.42,1.25-1.03,1.66-1.73,.2-.35,.37-.72,.49-1.11s.16-.8,.25-1.21c.2,.05,.41,.22,.59,.32,.22,.12,.45,.23,.67,.33,.46,.21,.92,.39,1.4,.54,.94,.3,1.92,.48,2.9,.55,1.2,.08,2.41-.01,3.58-.27,.59-.13,1.17-.31,1.74-.52,.07-.03,.34-.18,.4-.15,.1,.05,.03,.29,.02,.38-.02,.32-.03,.64-.01,.96,.02,.49,.15,.91,.24,1.32,.17,.54,.46,1,.9,1.37,.42,.39,.93,.69,1.44,.83,.37,.12,.78,.17,1.17,.17,.2,0,.37,0,.56-.02,.73-.05,1.54-.22,2.47-.54,.88-.34,1.66-.66,2.3-1,.98-.42,1.93-.88,2.79-1.32,.88-.44,1.79-.91,2.67-1.39l.93-.51,.24-.15c-.02,.27-.05,.54-.05,.81,0,.71,.17,1.32,.54,1.88,.42,.61,.93,1.03,1.59,1.27,.42,.15,.81,.22,1.3,.22s.88-.02,1.22-.12c1.03-.15,2.03-.37,3.03-.69,.71-.22,1.42-.46,2.13-.71l.78-.24c1.05-.39,2.1-.78,3.13-1.2l1.13-.46c.66-.24,1.32-.54,1.98-.81l.39-.17c.1-.05,.22-.1,.34-.15,.02,.73,.29,1.37,.76,1.91,.59,.69,1.27,1.2,2.06,1.59,1.03,.42,2.1,.64,3.23,.64h.22c1.13-.02,2.25-.17,3.4-.44,1.71-.37,3.45-.93,5.09-1.69,1.15-.54,2.18-1.08,3.13-1.64,.02,.02,.05,.07,.07,.12,.48,.85,1.53,1.23,2.46,1.26,.82,.03,1.64-.18,2.43-.42,.94-.28,1.87-.61,2.79-.95,.46-.17,.92-.35,1.38-.53,.11-.04,1.25-.43,1.25-.46,.04,.53-.07,1.08,.06,1.59,.1,.42,.09,.85,.28,1.25,.39,.85,1.23,1.48,2.13,1.7,1.32,.33,2.71,0,4.02-.36,2.58-.7,5.13-1.47,7.69-2.22,2.57-.75,5.15-1.48,7.76-2.1,1.24-.29,2.48-.55,3.73-.78,.63-.11,1.27-.22,1.9-.31,.25-.04,.54-.13,.8-.11,.29,.02,.56,.16,.81,.32,.35,.22,.72,.47,1.13,.42,.42-.06,.75-.46,.79-.89,0-.02,0-.05,0-.07Zm-86.28-8.58c1.11-2.13,2.38-4.19,3.79-6.14,.46-.63,.93-1.25,1.45-1.83s1.08-1.21,1.8-1.47c-.04,.69-.32,1.35-.63,1.97-.52,1.04-1.15,2.01-1.78,2.98-.65,1-1.31,2-2.01,2.97-.52,.73-1.07,1.44-1.63,2.14-.05,.07-.11,.13-.19,.17-.06,.03-.12,.04-.18,.04l-1.13,.15c.16-.33,.33-.66,.5-.99Zm-2.18,4.42c.3-.64,.59-1.29,.89-1.93,.13-.29,.22-.39,.54-.44,.23-.03,.46-.03,.69-.02l-2.31,2.81,.2-.42Zm-17.41,5.83c-.1,.46-.27,.88-.54,1.3-.42,.66-1.05,1.3-1.76,1.64-.02,0-.05,.02-.07,.02-.07-.02-.1-.07-.12-.15-.27-.71-.05-1.49,.29-2.13,.15-.27,.29-.54,.47-.81,.17-.24,.39-.49,.64-.71,.29-.27,.76-.51,1.15-.61,.05,.49,.05,.98-.05,1.44Zm49.33,1.61l-.05-.1,.07,.1h-.02Zm24.51-3.89c-.09,.03-.17,.06-.26,.09-.21,.07-.41,.14-.62,.22-.41,.15-.82,.3-1.23,.45-.82,.31-1.64,.61-2.47,.88-.41,.13-.82,.26-1.23,.37-.21,.06-.41,.11-.62,.16-.1,.02-.2,.05-.3,.08-.06,.02-.25,.08-.31,.05-.07-.04,.19-.4,.23-.45,.21-.31,.47-.58,.76-.82s.62-.46,.96-.66c.72-.41,1.49-.73,2.31-.89,.82-.16,1.69-.14,2.49,.11,.14,.04,.29,.1,.39,.2,.03,.02,.05,.05,.07,.08,.04,.08-.05,.09-.17,.12Z"/></g><path class="cls-2" d="M300.57,5.9c-.07,.08-.15,.16-.26,.24-.42,.31-.95,.38-1.45,.51-2.38,.59-4.22,2.43-5.81,4.3-3.04,3.59-5.61,7.56-7.95,11.63-4.01,6.97-7.42,14.27-11.13,21.41-.53,1.02-1.43,2.2-2.53,1.9-.63-.17-1.03-.81-1.14-1.45-.11-.64,.03-1.29,.15-1.93,1.64-8.86,.32-18.24-3.7-26.3-.92-1.85-2.02-3.68-3.67-4.92-.64-.48-1.06-1.67,.12-1.86,.63-.1,1.23,.3,1.72,.72,1.9,1.64,3.24,3.84,4.33,6.1,3.38,6.97,4.78,14.85,4.38,22.59,3.62-7.25,7.25-14.51,11.53-21.39,2.2-3.54,4.59-7,7.58-9.9,1.65-1.6,4.32-3.87,6.82-3.3,.82,.19,1.57,.96,.99,1.66Z"/><path class="cls-2" d="M294.4,18.82c-.22-.1-.42-.15-.59-.15-.15,0-.29,.02-.42,.1-.22,.15-.37,.37-.44,.64-.07,.24-.12,.51-.2,.76-.07,.29-.1,.54-.1,.73l-.05,.02c-.05,.07-.05,.17,0,.29v.12c0,.12,.07,.24,.2,.37s.24,.22,.42,.29c.1,.02,.22,.05,.34,.05h.12c.15,0,.22-.1,.22-.24v-.32c.17-.24,.34-.46,.47-.64,.12-.2,.22-.39,.34-.59,.1-.2,.17-.42,.2-.66,.05-.34-.15-.59-.51-.78Z"/><path class="cls-2" d="M382.82,25.23c-.12-.22-.32-.39-.51-.54-.39-.27-.88-.42-1.35-.49-1.71-.32-3.45-.02-5.14,.34-1.71,.39-3.43,.73-5.09,1.17-3.52,.91-7,2.01-10.5,2.98-1.61,.46-3.23,.91-4.87,1.3-.17,.05-.37,.07-.54,0-.29-.12-.37-.46-.39-.78-.05-.66,.02-1.32-.07-1.98-.1-.66-.39-1.35-.95-1.71,.42-.42,.02-1.13-.42-1.49-1.66-1.49-4.16-1.79-6.34-1.22-1.59,.42-3.03,1.25-4.38,2.2-1.35,.95-2.67,1.91-4.09,2.76-.81,.49-1.66,.93-2.5,1.32-1.98,1-4.11,1.74-6.31,2.01-.56,.07-1.15,.1-1.74,0-.27-.05-.56-.12-.81-.27-.56-.34-.88-.95-1.08-1.59-.27-.83-.37-1.71-.27-2.57,2.67-1.79,5.29-3.62,7.83-5.55,.49-.34,.95-.71,1.44-1.08,.29-.24,.59-.46,.86-.71l.73-.61c.46-.42,.9-.81,1.37-1.2l.2-.17c.98-.83,1.86-1.69,2.72-2.62l.32-.39,.54-.69c.29-.39,.56-.81,.76-1.3,.17-.32,.29-.71,.32-1.17,0-.49-.15-.95-.39-1.35-.39-.51-.86-.88-1.39-1.08-.56-.22-1.15-.32-1.57-.39-.44-.05-.86-.07-1.3-.07-1.08,0-2.15,.17-3.18,.51-.71,.27-1.44,.61-2.1,.98-.66,.39-1.27,.83-1.98,1.37-1.22,1.05-2.35,2.25-3.33,3.57-.49,.64-.95,1.35-1.37,2.1-.39,.64-.78,1.39-1.13,2.2-.71,1.49-1.2,2.96-1.52,4.48-.15,.59-.24,1.2-.34,1.98-1.59,.81-3.4,1.44-5.19,1.61-1.2,.12-2.45,0-3.62-.37-1.05-.32-2.13-.83-2.94-1.64-.44-.44-.83-.95-1.3-1.42-.39-.42-.91-.81-1.44-.69-.37,.05-.69,.34-.76,.69-.1,.37,.02,.76,.32,1-.69,.12-1.35,.42-1.98,.69-4.33,1.91-8.71,3.74-13.29,4.89-.46,.12-.93,.22-1.42,.2-.12-.02-.27-.05-.34-.12-.07-.1-.1-.2-.12-.32-.15-.86,.17-1.79,.47-2.57,.24-.64,.61-1.2,.91-1.81,.05-.1,.1-.2,.12-.32,.12-.27,.1-.59-.07-.86-.37-.54-1.22-.98-1.86-.64-.22,.12-.39,.37-.54,.61-.22,.37-.42,.76-.59,1.15-.39,.86-.76,1.74-.93,2.64-.17,1-.07,2.08,.49,2.96,.54,.83,1.44,1.32,2.42,1.44,.81,.1,1.64-.05,2.45-.22,2.62-.56,5.14-1.49,7.63-2.45,.54-.22,1.08-.44,1.61-.66,.29-.12,.59-.24,.88-.37,.15-.05,.29-.1,.44-.17,.07-.02,.39-.07,.42-.15-.17,.32-.12,.88-.07,1.22,.07,.44,.24,.88,.49,1.25,.49,.69,1.32,1.13,2.18,1.05,.54-.02,1.03-.27,1.49-.56,.66-.44,1.2-1.05,1.59-1.74,.22-.37,.39-.73,.49-1.13,.12-.39,.12-.78,.22-1.17,.51,.27,.98,.59,1.49,.81,.54,.24,1.08,.44,1.64,.59,1.05,.27,2.08,.42,3.11,.42,.37,0,.73-.02,1.08-.05,1.15-.1,2.28-.34,3.38-.69,.42-.15,.81-.29,1.22-.49,.07,.46,.17,.86,.29,1.25,.17,.61,.44,1.2,.83,1.71,.34,.54,.86,1.03,1.47,1.39,.59,.34,1.22,.59,1.88,.73,.51,.07,.95,.12,1.37,.12,.51,0,.93-.02,1.37-.1,1.25-.15,2.45-.42,3.55-.76,1-.29,2.06-.71,3.21-1.25,1.05-.54,2.08-1.08,3.03-1.66,.51-.32,1.03-.64,1.54-.98,.27,.39,.51,.61,.81,.78,.2,.15,.49,.27,.88,.37,.32,.07,.64,.12,.95,.12,.24,0,.49-.02,.76-.05,.56-.12,1.05-.24,1.49-.39,.56-.17,1.15-.34,1.71-.54l.83-.32,.83-.32c.44-.17,.88-.34,1.35-.51,.24-.1,.47-.17,.71-.24,0,.39,.02,.73,0,1.1-.07,1.61,1.05,3.21,2.67,3.55,.95,.2,1.93-.02,2.89-.27,7.32-1.84,14.46-4.48,21.92-5.6,.44-.07,.91-.12,1.35,.02,.47,.17,.86,.61,1.37,.61,.71-.02,1.08-1.05,.71-1.69Zm-73.67,2.37c-.1,.47-.27,.93-.52,1.34-.38,.63-.94,1.16-1.59,1.51-.54,.29-.49-.58-.46-.89,.04-.45,.19-.9,.39-1.3,.43-.87,1.1-1.65,2-2.02,.18-.07,.23-.02,.25,.16,.04,.41,.01,.81-.07,1.21Zm16.1-3.18c-.14-.11,0-.51,.04-.64,.3-1.23,.71-2.43,1.22-3.58,.4-.9,.85-1.78,1.37-2.62,.55-.9,1.16-1.77,1.82-2.59,1.24-1.53,2.7-2.91,4.43-3.86,.9-.5,1.87-.87,2.88-1.08,.51-.11,1.04-.17,1.56-.18,.24,0,.47,.02,.7,.03,.27,.02,.53-.02,.79,.07s.52,.29,.58,.57c.04,.19-.01,.38-.07,.57-.27,.79-.76,1.49-1.29,2.14-1.03,1.26-2.25,2.35-3.49,3.4-2.04,1.73-4.15,3.37-6.32,4.94-1.09,.79-2.2,1.56-3.31,2.33-.13,.09-.27,.18-.4,.27-.09,.06-.3,.27-.42,.27-.04,0-.07,0-.1-.03Zm25.69,.94c-.25,.11-.52,.19-.78,.28-.33,.12-.65,.24-.98,.35-.65,.23-1.3,.47-1.96,.69-.34,.12-.68,.23-1.02,.34-.76,.25-1.52,.48-2.3,.61,.44-.94,1.33-1.6,2.26-2.08,.75-.39,1.56-.68,2.39-.79s1.71-.02,2.48,.32c.06,.03,.13,.07,.11,.14,0,.04-.05,.06-.08,.08-.04,.02-.08,.04-.13,.06Z"/></g><g><g><path class="cls-2" d="M125.7,54.95c-.04,.46-.07,.9-.08,1.33-.02,.43-.02,.76-.02,.99s0,.44,.02,.64c0,.2,.02,.38,.03,.52h-.35c-.13-.79-.32-1.42-.55-1.87-.23-.45-.52-.78-.86-.97-.34-.19-.75-.29-1.21-.29h-.5c-.29,0-.52,.03-.67,.08-.15,.05-.25,.15-.31,.31s-.08,.39-.08,.7v7.66c0,.4,.04,.69,.12,.89,.08,.19,.24,.32,.47,.38,.23,.06,.58,.1,1.04,.11v.34c-.32,0-.72-.02-1.22-.03-.5,0-1.02-.02-1.57-.02-.44,0-.86,0-1.28,.02-.42,.01-.79,.02-1.13,.03v-.31c.33-.02,.57-.06,.73-.12s.27-.18,.33-.37,.08-.46,.08-.82v-7.57c0-.38-.03-.65-.08-.83-.06-.18-.17-.3-.34-.37-.17-.07-.41-.1-.73-.11v-.31c.42,.01,.86,.02,1.33,.02,.47,0,.93,.01,1.39,.02,.46,0,.89,0,1.28,0h.98c.47,0,1,0,1.6,0s1.13-.02,1.6-.04Zm-2.27,5.28v.31h-2.78v-.31h2.78Zm.38-2.02c-.04,.58-.06,1.02-.05,1.33,0,.31,0,.59,0,.84s0,.53,.02,.84c0,.31,.04,.75,.08,1.33h-.35c-.06-.36-.16-.69-.29-.99-.13-.31-.33-.55-.58-.74s-.59-.28-.99-.28v-.31c.31,0,.56-.06,.77-.19,.21-.13,.38-.29,.53-.5,.14-.21,.25-.43,.34-.66,.08-.23,.14-.45,.18-.66h.35Z"/><path class="cls-2" d="M131.32,65.87c-.46,0-.84-.09-1.15-.26-.31-.17-.53-.4-.67-.69-.14-.29-.21-.61-.21-.95,0-.44,.1-.79,.3-1.07s.46-.5,.77-.67c.32-.17,.65-.32,1-.43,.35-.11,.69-.22,1.01-.33,.32-.11,.58-.23,.78-.38s.3-.34,.3-.57v-1.19c0-.26-.04-.5-.13-.71-.09-.21-.22-.37-.4-.48-.18-.11-.41-.17-.7-.17-.2,0-.41,.03-.61,.08s-.37,.15-.5,.28c.28,.1,.51,.26,.66,.47,.16,.21,.24,.45,.24,.71,0,.35-.12,.62-.36,.82-.24,.2-.52,.31-.85,.31-.37,0-.64-.11-.83-.34-.19-.23-.28-.51-.28-.83,0-.29,.07-.54,.22-.73,.15-.19,.35-.38,.62-.55,.29-.16,.63-.29,1.03-.38,.4-.09,.84-.14,1.31-.14s.89,.05,1.27,.15,.69,.27,.95,.53c.23,.23,.39,.52,.46,.86s.11,.77,.11,1.29v4.15c0,.25,.03,.43,.08,.53s.14,.15,.26,.15c.09,0,.18-.03,.27-.08,.09-.05,.18-.11,.28-.18l.15,.26c-.21,.18-.46,.32-.74,.42-.28,.1-.59,.15-.94,.15-.38,0-.68-.05-.9-.16-.22-.11-.38-.25-.48-.44-.1-.18-.14-.4-.14-.64-.25,.39-.54,.69-.89,.91-.35,.22-.77,.33-1.27,.33Zm1.08-.98c.2,0,.39-.05,.56-.15,.17-.1,.33-.26,.48-.48v-3.13c-.09,.15-.22,.29-.38,.41s-.34,.25-.52,.37-.36,.27-.53,.42c-.17,.15-.3,.34-.4,.56s-.15,.49-.15,.81c0,.4,.09,.69,.26,.89,.17,.19,.4,.29,.69,.29Z"/><path class="cls-2" d="M145.42,57.65c.33,0,.59,.07,.79,.21,.2,.14,.35,.31,.45,.53,.1,.21,.14,.44,.14,.67,0,.38-.11,.68-.33,.92-.22,.24-.51,.36-.86,.36s-.63-.09-.83-.27c-.2-.18-.3-.41-.3-.71s.06-.52,.19-.71,.29-.35,.48-.48c-.14-.04-.29-.04-.43,.02-.19,.03-.38,.11-.55,.24-.17,.13-.32,.29-.44,.47-.12,.19-.22,.39-.29,.61-.07,.22-.11,.43-.11,.63v4.05c0,.49,.12,.82,.36,.99,.24,.17,.6,.26,1.08,.26v.32c-.23,0-.58-.02-1.02-.04-.45-.02-.92-.02-1.4-.02-.41,0-.82,0-1.24,.02-.42,.02-.73,.03-.95,.04v-.32c.36,0,.61-.08,.76-.23,.15-.15,.22-.44,.22-.87v-4.81c0-.46-.07-.8-.21-1.02-.14-.22-.39-.33-.77-.33v-.32c.33,.03,.64,.05,.95,.05,.43,0,.83-.02,1.2-.05,.37-.04,.71-.09,1.03-.16v1.42c.12-.27,.28-.52,.49-.75s.44-.4,.7-.53c.26-.13,.56-.19,.89-.19Z"/><path class="cls-2" d="M155.9,57.65c.43,0,.77,.05,1.04,.16,.26,.11,.48,.25,.64,.44,.16,.19,.28,.45,.35,.76,.07,.31,.11,.72,.11,1.23v4.11c0,.43,.07,.72,.2,.87,.13,.15,.36,.23,.69,.23v.32c-.18,0-.46-.02-.83-.04-.37-.02-.74-.02-1.09-.02s-.73,0-1.08,.02c-.36,.02-.63,.03-.81,.04v-.32c.27,0,.47-.08,.57-.23,.11-.15,.16-.44,.16-.87v-4.75c0-.25-.02-.48-.06-.66s-.12-.34-.24-.44-.29-.16-.53-.16c-.26,0-.51,.08-.73,.23-.22,.15-.4,.36-.54,.63-.14,.27-.21,.57-.21,.91v4.24c0,.43,.06,.72,.17,.87,.11,.15,.3,.23,.56,.23v.32c-.16,0-.41-.02-.76-.04-.34-.02-.69-.02-1.05-.02-.39,0-.78,0-1.19,.02-.41,.02-.71,.03-.92,.04v-.32c.36,0,.61-.08,.76-.23,.15-.15,.22-.44,.22-.87v-4.81c0-.46-.07-.8-.21-1.02-.14-.22-.39-.33-.77-.33v-.32c.33,.03,.64,.05,.95,.05,.43,0,.83-.02,1.2-.05,.37-.04,.71-.09,1.03-.16v1.37c.24-.51,.58-.87,.99-1.09s.88-.33,1.37-.33Zm4.6,0c.43,0,.77,.05,1.04,.16,.26,.11,.48,.25,.64,.44,.16,.19,.28,.45,.35,.76,.07,.31,.11,.72,.11,1.23v4.11c0,.43,.07,.72,.22,.87,.15,.15,.4,.23,.76,.23v.32c-.19,0-.48-.02-.87-.04-.39-.02-.77-.02-1.15-.02s-.73,0-1.08,.02c-.36,.02-.63,.03-.81,.04v-.32c.28,0,.47-.08,.57-.23,.11-.15,.16-.44,.16-.87v-4.75c0-.25-.02-.48-.07-.66s-.13-.34-.26-.44-.32-.16-.59-.16-.51,.08-.73,.24c-.22,.16-.4,.38-.54,.66-.14,.28-.21,.58-.22,.92l-.08-.93c.27-.61,.64-1.02,1.09-1.24s.94-.32,1.46-.32Z"/><path class="cls-2" d="M169.33,65.87c-.46,0-.84-.09-1.15-.26-.31-.17-.53-.4-.67-.69-.14-.29-.21-.61-.21-.95,0-.44,.1-.79,.3-1.07s.46-.5,.77-.67c.32-.17,.65-.32,1-.43,.35-.11,.69-.22,1.01-.33,.32-.11,.58-.23,.78-.38s.3-.34,.3-.57v-1.19c0-.26-.04-.5-.13-.71-.09-.21-.22-.37-.4-.48-.18-.11-.41-.17-.7-.17-.2,0-.41,.03-.61,.08s-.37,.15-.5,.28c.28,.1,.51,.26,.66,.47,.16,.21,.24,.45,.24,.71,0,.35-.12,.62-.36,.82-.24,.2-.52,.31-.85,.31-.37,0-.64-.11-.83-.34-.19-.23-.28-.51-.28-.83,0-.29,.07-.54,.22-.73,.15-.19,.35-.38,.62-.55,.29-.16,.63-.29,1.03-.38,.4-.09,.84-.14,1.31-.14s.89,.05,1.27,.15,.69,.27,.95,.53c.23,.23,.39,.52,.46,.86s.11,.77,.11,1.29v4.15c0,.25,.03,.43,.08,.53s.14,.15,.26,.15c.09,0,.18-.03,.27-.08,.09-.05,.18-.11,.28-.18l.15,.26c-.21,.18-.46,.32-.74,.42-.28,.1-.59,.15-.94,.15-.38,0-.68-.05-.9-.16-.22-.11-.38-.25-.48-.44-.1-.18-.14-.4-.14-.64-.25,.39-.54,.69-.89,.91-.35,.22-.77,.33-1.27,.33Zm1.08-.98c.2,0,.39-.05,.56-.15,.17-.1,.33-.26,.48-.48v-3.13c-.09,.15-.22,.29-.38,.41s-.34,.25-.52,.37-.36,.27-.53,.42c-.17,.15-.3,.34-.4,.56s-.15,.49-.15,.81c0,.4,.09,.69,.26,.89,.17,.19,.4,.29,.69,.29Zm2.08-11.6c.17,.13,.26,.32,.27,.55,.01,.23-.07,.45-.23,.66-.16,.2-.36,.39-.6,.55-.23,.16-.51,.36-.83,.6-.32,.23-.7,.56-1.15,.98l-.17-.14c.31-.55,.53-1.01,.67-1.38,.14-.37,.26-.69,.37-.95s.24-.49,.41-.69c.15-.2,.35-.32,.6-.36s.47,.03,.65,.19Z"/><path class="cls-2" d="M182.16,57.65c.4,0,.76,.04,1.09,.13,.33,.09,.6,.2,.82,.33,.26,.16,.47,.36,.62,.6,.15,.24,.22,.52,.22,.83,0,.36-.11,.65-.34,.88-.22,.23-.51,.34-.87,.34s-.64-.1-.86-.31c-.21-.2-.32-.48-.32-.82,0-.33,.1-.6,.31-.82,.2-.22,.44-.36,.7-.44-.08-.1-.2-.19-.37-.26-.16-.07-.35-.11-.55-.11-.32,0-.59,.09-.83,.27-.24,.18-.44,.44-.6,.76-.16,.33-.29,.71-.37,1.14-.09,.44-.13,.92-.13,1.44,0,.78,.1,1.4,.3,1.85,.2,.45,.45,.76,.76,.95s.63,.27,.97,.27c.19,0,.41-.03,.63-.09s.46-.18,.7-.37c.24-.18,.46-.44,.66-.78l.26,.09c-.11,.38-.3,.75-.55,1.13s-.59,.68-.99,.92c-.41,.24-.91,.36-1.5,.36-.66,0-1.26-.14-1.79-.44-.53-.29-.96-.74-1.28-1.34s-.48-1.39-.48-2.34,.17-1.69,.5-2.31c.33-.63,.78-1.1,1.35-1.41,.57-.32,1.22-.47,1.94-.47Z"/><path class="cls-2" d="M191.99,57.7v6.64c0,.43,.07,.72,.22,.87,.15,.15,.4,.23,.76,.23v.32c-.18,0-.47-.02-.85-.04-.39-.02-.78-.02-1.18-.02s-.8,0-1.21,.02c-.41,.02-.71,.03-.92,.04v-.32c.36,0,.61-.08,.76-.23,.15-.15,.22-.44,.22-.87v-4.81c0-.46-.07-.8-.21-1.02-.14-.22-.39-.33-.77-.33v-.32c.33,.03,.64,.05,.95,.05,.43,0,.83-.02,1.2-.05,.37-.04,.71-.09,1.03-.16Zm-1.19-3.77c.43,0,.77,.1,1.01,.31s.37,.5,.37,.86-.13,.65-.37,.86-.59,.31-1.01,.31-.77-.1-1.02-.31-.37-.5-.37-.86,.12-.65,.37-.86,.59-.31,1.02-.31Z"/><path class="cls-2" d="M198.78,65.87c-.46,0-.84-.09-1.15-.26-.31-.17-.53-.4-.67-.69-.14-.29-.21-.61-.21-.95,0-.44,.1-.79,.3-1.07s.46-.5,.77-.67c.32-.17,.65-.32,1-.43,.35-.11,.69-.22,1.01-.33,.32-.11,.58-.23,.78-.38s.3-.34,.3-.57v-1.19c0-.26-.04-.5-.13-.71-.09-.21-.22-.37-.4-.48-.18-.11-.41-.17-.7-.17-.2,0-.41,.03-.61,.08s-.37,.15-.5,.28c.28,.1,.51,.26,.66,.47,.16,.21,.24,.45,.24,.71,0,.35-.12,.62-.36,.82-.24,.2-.52,.31-.85,.31-.37,0-.64-.11-.83-.34-.19-.23-.28-.51-.28-.83,0-.29,.07-.54,.22-.73,.15-.19,.35-.38,.62-.55,.29-.16,.63-.29,1.03-.38,.4-.09,.84-.14,1.31-.14s.89,.05,1.27,.15,.69,.27,.95,.53c.23,.23,.39,.52,.46,.86s.11,.77,.11,1.29v4.15c0,.25,.03,.43,.08,.53s.14,.15,.26,.15c.09,0,.18-.03,.27-.08,.09-.05,.18-.11,.28-.18l.15,.26c-.21,.18-.46,.32-.74,.42-.28,.1-.59,.15-.94,.15-.38,0-.68-.05-.9-.16-.22-.11-.38-.25-.48-.44-.1-.18-.14-.4-.14-.64-.25,.39-.54,.69-.89,.91-.35,.22-.77,.33-1.27,.33Zm1.08-.98c.2,0,.39-.05,.56-.15,.17-.1,.33-.26,.48-.48v-3.13c-.09,.15-.22,.29-.38,.41s-.34,.25-.52,.37-.36,.27-.53,.42c-.17,.15-.3,.34-.4,.56s-.15,.49-.15,.81c0,.4,.09,.69,.26,.89,.17,.19,.4,.29,.69,.29Z"/><path class="cls-2" d="M217.79,57.65c.45,0,.84,.07,1.18,.22,.34,.15,.61,.39,.8,.74l-.18,.17c-.13-.24-.31-.42-.53-.53-.22-.11-.45-.16-.69-.16-.52,0-.93,.3-1.24,.91-.31,.61-.45,1.54-.44,2.8,0,.86,.06,1.55,.18,2.07s.28,.88,.5,1.11c.22,.22,.47,.34,.76,.34,.35,0,.66-.14,.93-.41,.27-.27,.42-.65,.44-1.11l.08,.53c-.15,.54-.4,.95-.74,1.23-.34,.28-.79,.42-1.34,.42-.6,0-1.14-.15-1.61-.44-.47-.29-.84-.75-1.11-1.37-.26-.62-.4-1.41-.4-2.39,0-.93,.15-1.69,.44-2.3,.29-.61,.7-1.06,1.21-1.37,.51-.31,1.1-.46,1.75-.46Zm3.89-3.85v10.28c0,.46,.07,.8,.21,1.02,.14,.22,.4,.33,.76,.33v.32c-.32-.03-.63-.05-.95-.05-.43,0-.83,.02-1.2,.05-.37,.03-.71,.09-1.03,.17v-10.28c0-.46-.07-.8-.21-1.02-.14-.22-.4-.33-.77-.33v-.32c.33,.03,.64,.05,.95,.05,.42,0,.81-.02,1.19-.05,.38-.04,.72-.09,1.04-.16Z"/><path class="cls-2" d="M230.29,57.65c.89,0,1.6,.26,2.11,.79s.76,1.39,.76,2.6h-5.02l-.03-.29h3.13c0-.5-.02-.96-.09-1.38-.07-.42-.18-.76-.34-1.02-.15-.25-.36-.38-.61-.38-.36,0-.66,.22-.91,.67s-.4,1.19-.45,2.23l.05,.09c-.01,.12-.02,.25-.02,.38,0,.13,0,.27,0,.41,0,.7,.1,1.27,.3,1.71s.45,.76,.76,.95c.31,.2,.62,.3,.93,.3,.21,0,.44-.03,.66-.1s.46-.19,.69-.37c.23-.18,.45-.43,.66-.76l.28,.09c-.12,.39-.32,.76-.58,1.13s-.6,.67-1.01,.9c-.41,.23-.9,.35-1.47,.35-.69,0-1.3-.15-1.83-.44-.53-.29-.94-.74-1.24-1.34s-.45-1.36-.45-2.29,.16-1.74,.48-2.37,.76-1.1,1.33-1.41,1.21-.47,1.93-.47Z"/><path class="cls-2" d="M257,54.95v.31c-.33,.01-.57,.05-.73,.11s-.27,.19-.33,.37c-.06,.18-.08,.46-.08,.83v7.57c0,.37,.03,.64,.08,.82s.17,.31,.33,.37,.41,.1,.73,.12v.31c-.28-.02-.64-.03-1.08-.04-.43,0-.87,0-1.32,0-.49,0-.95,0-1.37,0-.43,0-.77,.02-1.04,.04v-.31c.35-.02,.61-.06,.79-.12,.18-.06,.3-.18,.36-.37s.09-.46,.09-.82v-8.26h.11l-3.79,9.89h-.24l-4.12-9.83v7.31c0,.56,.03,.99,.09,1.29,.06,.3,.2,.51,.4,.64,.21,.13,.54,.22,.98,.27v.31c-.19-.02-.45-.03-.76-.04-.32,0-.61,0-.89,0-.23,0-.47,0-.72,0-.24,0-.45,.02-.61,.04v-.31c.32-.05,.57-.14,.73-.26,.16-.12,.27-.32,.33-.6s.08-.66,.08-1.15v-6.87c0-.38-.03-.65-.08-.83-.06-.18-.17-.3-.34-.37-.17-.07-.41-.1-.73-.11v-.31c.16,.01,.37,.02,.61,.03,.24,.01,.48,.02,.72,.02,.44,0,.87,0,1.29-.02,.42,0,.8-.02,1.12-.03l3.21,7.74-.38,.35,3.07-8.05h1.08c.45,0,.89,0,1.32-.02,.43,0,.79-.02,1.08-.03Z"/><path class="cls-2" d="M262.94,65.87c-.46,0-.84-.09-1.15-.26-.31-.17-.53-.4-.67-.69-.14-.29-.21-.61-.21-.95,0-.44,.1-.79,.3-1.07s.46-.5,.77-.67c.32-.17,.65-.32,1-.43,.35-.11,.69-.22,1.01-.33,.32-.11,.58-.23,.78-.38s.3-.34,.3-.57v-1.19c0-.26-.04-.5-.13-.71-.09-.21-.22-.37-.4-.48-.18-.11-.41-.17-.7-.17-.2,0-.41,.03-.61,.08s-.37,.15-.5,.28c.28,.1,.51,.26,.66,.47,.16,.21,.24,.45,.24,.71,0,.35-.12,.62-.36,.82-.24,.2-.52,.31-.85,.31-.37,0-.64-.11-.83-.34-.19-.23-.28-.51-.28-.83,0-.29,.07-.54,.22-.73,.15-.19,.35-.38,.62-.55,.29-.16,.63-.29,1.03-.38,.4-.09,.84-.14,1.31-.14s.89,.05,1.27,.15,.69,.27,.95,.53c.23,.23,.39,.52,.46,.86s.11,.77,.11,1.29v4.15c0,.25,.03,.43,.08,.53s.14,.15,.26,.15c.09,0,.18-.03,.27-.08,.09-.05,.18-.11,.28-.18l.15,.26c-.21,.18-.46,.32-.74,.42-.28,.1-.59,.15-.94,.15-.38,0-.68-.05-.9-.16-.22-.11-.38-.25-.48-.44-.1-.18-.14-.4-.14-.64-.25,.39-.54,.69-.89,.91-.35,.22-.77,.33-1.27,.33Zm1.08-.98c.2,0,.39-.05,.56-.15,.17-.1,.33-.26,.48-.48v-3.13c-.09,.15-.22,.29-.38,.41s-.34,.25-.52,.37-.36,.27-.53,.42c-.17,.15-.3,.34-.4,.56s-.15,.49-.15,.81c0,.4,.09,.69,.26,.89,.17,.19,.4,.29,.69,.29Z"/><path class="cls-2" d="M277.47,57.65c.43,0,.78,.05,1.05,.16,.27,.11,.48,.25,.63,.44,.16,.19,.28,.44,.36,.75,.08,.31,.11,.72,.11,1.24v4.11c0,.43,.07,.72,.22,.87,.15,.15,.4,.23,.76,.23v.32c-.19,0-.48-.02-.87-.04-.39-.02-.77-.02-1.15-.02s-.77,0-1.14,.02c-.37,.02-.65,.03-.85,.04v-.32c.31,0,.52-.08,.64-.23,.12-.15,.18-.44,.18-.87v-4.75c0-.25-.03-.48-.08-.66s-.14-.34-.28-.44-.33-.16-.59-.16-.53,.08-.76,.23c-.23,.15-.41,.36-.55,.63-.14,.27-.21,.57-.21,.91v4.24c0,.43,.06,.72,.19,.87,.13,.15,.34,.23,.63,.23v.32c-.18,0-.45-.02-.8-.04-.35-.02-.71-.02-1.09-.02s-.78,0-1.19,.02c-.41,.02-.71,.03-.92,.04v-.32c.36,0,.61-.08,.76-.23,.15-.15,.22-.44,.22-.87v-4.81c0-.46-.07-.8-.21-1.02-.14-.22-.39-.33-.77-.33v-.32c.33,.03,.64,.05,.95,.05,.43,0,.83-.02,1.2-.05,.37-.04,.71-.09,1.03-.16v1.37c.25-.52,.6-.89,1.04-1.1s.93-.32,1.47-.32Z"/><path class="cls-2" d="M287.39,57.7v6.64c0,.43,.07,.72,.22,.87,.15,.15,.4,.23,.76,.23v.32c-.18,0-.47-.02-.85-.04-.39-.02-.78-.02-1.18-.02s-.8,0-1.21,.02c-.41,.02-.71,.03-.92,.04v-.32c.36,0,.61-.08,.76-.23,.15-.15,.22-.44,.22-.87v-4.81c0-.46-.07-.8-.21-1.02-.14-.22-.39-.33-.77-.33v-.32c.33,.03,.64,.05,.95,.05,.43,0,.83-.02,1.2-.05,.37-.04,.71-.09,1.03-.16Zm-1.19-3.77c.43,0,.77,.1,1.01,.31s.37,.5,.37,.86-.13,.65-.37,.86-.59,.31-1.01,.31-.77-.1-1.02-.31-.37-.5-.37-.86,.12-.65,.37-.86,.59-.31,1.02-.31Z"/><path class="cls-2" d="M295.19,57.7v9.31c0,.48,.12,.8,.37,.95s.58,.24,1.01,.24v.32c-.26-.01-.63-.02-1.09-.04-.46-.02-.95-.02-1.47-.02-.38,0-.75,0-1.11,.02-.36,.02-.63,.03-.82,.04v-.32c.34,0,.57-.07,.71-.21,.14-.14,.21-.42,.21-.82v-7.63c0-.46-.07-.8-.21-1.02s-.4-.33-.76-.33v-.32c.33,.03,.64,.05,.95,.05,.42,0,.81-.02,1.19-.05s.72-.09,1.04-.16Zm2.37-.05c.52,0,.98,.14,1.39,.42,.41,.28,.73,.7,.98,1.27s.37,1.27,.37,2.11c0,.74-.08,1.39-.25,1.95-.17,.56-.41,1.03-.72,1.41-.31,.38-.68,.67-1.12,.86-.43,.19-.92,.29-1.46,.29-.4,0-.76-.07-1.08-.21-.33-.14-.58-.33-.75-.59l.15-.2c.1,.18,.25,.33,.43,.43,.19,.1,.4,.15,.65,.15,.46,0,.82-.15,1.08-.47,.26-.31,.46-.75,.57-1.31,.12-.56,.17-1.24,.17-2.02,0-.88-.06-1.56-.17-2.06-.11-.5-.26-.85-.46-1.07-.19-.21-.43-.32-.7-.32-.37,0-.7,.14-1,.43s-.47,.69-.51,1.22l-.08-.53c.18-.58,.5-1.02,.94-1.32,.44-.3,.96-.45,1.55-.45Z"/><path class="cls-2" d="M311.9,57.7v6.4c0,.46,.07,.8,.21,1.02s.4,.33,.76,.33v.32c-.32-.03-.63-.05-.95-.05-.43,0-.82,.02-1.19,.05s-.71,.09-1.04,.17v-1.37c-.24,.51-.58,.87-1.01,1.09s-.91,.33-1.44,.33c-.43,0-.77-.06-1.04-.17-.26-.11-.47-.25-.63-.43-.17-.19-.3-.45-.37-.76-.07-.32-.11-.72-.11-1.22v-3.86c0-.46-.07-.8-.21-1.02s-.39-.33-.77-.33v-.32c.33,.03,.64,.05,.95,.05,.43,0,.83-.02,1.2-.05s.71-.09,1.03-.16v6.32c0,.25,.02,.48,.07,.67s.13,.34,.27,.45c.13,.11,.33,.16,.58,.16,.28,0,.52-.08,.74-.23,.22-.15,.4-.36,.53-.63,.14-.27,.21-.57,.21-.91v-4c0-.46-.07-.8-.21-1.02s-.39-.33-.77-.33v-.32c.33,.03,.64,.05,.95,.05,.43,0,.83-.02,1.2-.05s.71-.09,1.03-.16Z"/><path class="cls-2" d="M319.71,53.81v10.53c0,.43,.07,.72,.22,.87,.15,.15,.4,.23,.76,.23v.32c-.19,0-.48-.02-.87-.04-.39-.02-.78-.02-1.18-.02s-.8,0-1.2,.02c-.4,.02-.7,.03-.91,.04v-.32c.36,0,.61-.08,.76-.23,.15-.15,.22-.44,.22-.87v-8.7c0-.46-.07-.8-.21-1.02-.14-.22-.39-.33-.77-.33v-.32c.33,.03,.64,.05,.95,.05,.42,0,.81-.02,1.19-.05,.38-.04,.72-.09,1.04-.16Z"/><path class="cls-2" d="M326.51,65.87c-.46,0-.84-.09-1.15-.26-.31-.17-.53-.4-.67-.69-.14-.29-.21-.61-.21-.95,0-.44,.1-.79,.3-1.07s.46-.5,.77-.67c.32-.17,.65-.32,1-.43,.35-.11,.69-.22,1.01-.33,.32-.11,.58-.23,.78-.38s.3-.34,.3-.57v-1.19c0-.26-.04-.5-.13-.71-.09-.21-.22-.37-.4-.48-.18-.11-.41-.17-.7-.17-.2,0-.41,.03-.61,.08s-.37,.15-.5,.28c.28,.1,.51,.26,.66,.47,.16,.21,.24,.45,.24,.71,0,.35-.12,.62-.36,.82-.24,.2-.52,.31-.85,.31-.37,0-.64-.11-.83-.34-.19-.23-.28-.51-.28-.83,0-.29,.07-.54,.22-.73,.15-.19,.35-.38,.62-.55,.29-.16,.63-.29,1.03-.38,.4-.09,.84-.14,1.31-.14s.89,.05,1.27,.15,.69,.27,.95,.53c.23,.23,.39,.52,.46,.86s.11,.77,.11,1.29v4.15c0,.25,.03,.43,.08,.53s.14,.15,.26,.15c.09,0,.18-.03,.27-.08,.09-.05,.18-.11,.28-.18l.15,.26c-.21,.18-.46,.32-.74,.42-.28,.1-.59,.15-.94,.15-.38,0-.68-.05-.9-.16-.22-.11-.38-.25-.48-.44-.1-.18-.14-.4-.14-.64-.25,.39-.54,.69-.89,.91-.35,.22-.77,.33-1.27,.33Zm1.08-.98c.2,0,.39-.05,.56-.15,.17-.1,.33-.26,.48-.48v-3.13c-.09,.15-.22,.29-.38,.41s-.34,.25-.52,.37-.36,.27-.53,.42c-.17,.15-.3,.34-.4,.56s-.15,.49-.15,.81c0,.4,.09,.69,.26,.89,.17,.19,.4,.29,.69,.29Z"/><path class="cls-2" d="M339.33,57.65c.4,0,.76,.04,1.09,.13,.33,.09,.6,.2,.82,.33,.26,.16,.47,.36,.62,.6,.15,.24,.22,.52,.22,.83,0,.36-.11,.65-.34,.88-.22,.23-.51,.34-.87,.34s-.64-.1-.86-.31c-.21-.2-.32-.48-.32-.82,0-.33,.1-.6,.31-.82,.2-.22,.44-.36,.7-.44-.08-.1-.2-.19-.37-.26-.16-.07-.35-.11-.55-.11-.32,0-.59,.09-.83,.27-.24,.18-.44,.44-.6,.76-.16,.33-.29,.71-.37,1.14-.09,.44-.13,.92-.13,1.44,0,.78,.1,1.4,.3,1.85,.2,.45,.45,.76,.76,.95s.63,.27,.97,.27c.19,0,.41-.03,.63-.09s.46-.18,.7-.37c.24-.18,.46-.44,.66-.78l.26,.09c-.11,.38-.3,.75-.55,1.13s-.59,.68-.99,.92c-.41,.24-.91,.36-1.5,.36-.66,0-1.26-.14-1.79-.44-.53-.29-.96-.74-1.28-1.34s-.48-1.39-.48-2.34,.17-1.69,.5-2.31c.33-.63,.78-1.1,1.35-1.41,.57-.32,1.22-.47,1.94-.47Zm-.34,8.08l-.32,1.02c.16-.06,.34-.11,.52-.14s.37-.05,.56-.05c.35,0,.61,.07,.79,.22s.27,.35,.27,.6c0,.29-.1,.52-.3,.7s-.46,.32-.79,.4-.68,.13-1.05,.13c-.28,0-.52-.02-.75-.05-.22-.04-.42-.08-.58-.13l.08-.28c.06,.01,.15,.02,.28,.04,.12,.02,.25,.02,.4,.02,.17,0,.34-.02,.51-.06,.17-.04,.31-.11,.43-.2s.18-.21,.18-.37c0-.26-.17-.4-.5-.4-.08,0-.18,0-.3,.02-.12,.02-.22,.04-.31,.08l.49-1.59h.41Z"/><path class="cls-2" d="M348.09,65.87c-.46,0-.84-.09-1.15-.26-.31-.17-.53-.4-.67-.69-.14-.29-.21-.61-.21-.95,0-.44,.1-.79,.3-1.07s.46-.5,.77-.67c.32-.17,.65-.32,1-.43,.35-.11,.69-.22,1.01-.33,.32-.11,.58-.23,.78-.38s.3-.34,.3-.57v-1.19c0-.26-.04-.5-.13-.71-.09-.21-.22-.37-.4-.48-.18-.11-.41-.17-.7-.17-.2,0-.41,.03-.61,.08s-.37,.15-.5,.28c.28,.1,.51,.26,.66,.47,.16,.21,.24,.45,.24,.71,0,.35-.12,.62-.36,.82-.24,.2-.52,.31-.85,.31-.37,0-.64-.11-.83-.34-.19-.23-.28-.51-.28-.83,0-.29,.07-.54,.22-.73,.15-.19,.35-.38,.62-.55,.29-.16,.63-.29,1.03-.38,.4-.09,.84-.14,1.31-.14s.89,.05,1.27,.15,.69,.27,.95,.53c.23,.23,.39,.52,.46,.86s.11,.77,.11,1.29v4.15c0,.25,.03,.43,.08,.53s.14,.15,.26,.15c.09,0,.18-.03,.27-.08,.09-.05,.18-.11,.28-.18l.15,.26c-.21,.18-.46,.32-.74,.42-.28,.1-.59,.15-.94,.15-.38,0-.68-.05-.9-.16-.22-.11-.38-.25-.48-.44-.1-.18-.14-.4-.14-.64-.25,.39-.54,.69-.89,.91-.35,.22-.77,.33-1.27,.33Zm.35-12.11c.32,0,.58,.05,.79,.15,.21,.1,.41,.22,.59,.35s.36,.25,.55,.35,.4,.15,.65,.15c.21,0,.42-.06,.62-.19s.38-.33,.56-.62l.21,.11c-.17,.75-.43,1.3-.77,1.63-.34,.33-.71,.5-1.12,.5-.32,0-.58-.05-.8-.15-.22-.1-.42-.22-.59-.36s-.36-.26-.54-.36c-.18-.1-.4-.15-.66-.15-.21,0-.42,.06-.62,.19-.2,.13-.38,.34-.56,.63l-.21-.11c.17-.76,.43-1.31,.78-1.63,.35-.33,.72-.49,1.13-.49Zm.73,11.13c.2,0,.39-.05,.56-.15,.17-.1,.33-.26,.48-.48v-3.13c-.09,.15-.22,.29-.38,.41s-.34,.25-.52,.37-.36,.27-.53,.42c-.17,.15-.3,.34-.4,.56s-.15,.49-.15,.81c0,.4,.09,.69,.26,.89,.17,.19,.4,.29,.69,.29Z"/><path class="cls-2" d="M360.89,57.65c.74,0,1.39,.14,1.95,.41,.56,.28,1,.72,1.31,1.33s.47,1.42,.47,2.43-.16,1.81-.47,2.42c-.32,.61-.75,1.05-1.31,1.32-.56,.28-1.21,.41-1.95,.41s-1.37-.14-1.93-.41c-.56-.27-1.01-.71-1.33-1.32-.32-.61-.48-1.41-.48-2.42s.16-1.82,.48-2.43,.76-1.05,1.33-1.33c.56-.27,1.21-.41,1.93-.41Zm0,.31c-.41,0-.75,.3-1.02,.91s-.41,1.59-.41,2.95,.14,2.35,.41,2.95c.28,.6,.62,.9,1.02,.9s.76-.3,1.03-.9c.27-.6,.4-1.58,.4-2.95s-.14-2.35-.4-2.95c-.27-.61-.61-.91-1.03-.91Z"/></g><path class="cls-2" d="M209.28,59.66c.26,0,.5,.06,.72,.19s.39,.3,.52,.52c.13,.21,.19,.45,.19,.72s-.07,.5-.19,.71c-.13,.22-.3,.39-.51,.52-.21,.13-.45,.19-.72,.19s-.5-.06-.71-.19c-.21-.13-.39-.3-.52-.52s-.19-.45-.19-.71,.06-.5,.19-.72c.13-.21,.3-.39,.52-.52,.21-.13,.45-.19,.71-.19Z"/><path class="cls-2" d="M238.99,59.66c.26,0,.5,.06,.72,.19s.39,.3,.52,.52c.13,.21,.19,.45,.19,.72s-.07,.5-.19,.71c-.13,.22-.3,.39-.51,.52-.21,.13-.45,.19-.72,.19s-.5-.06-.71-.19c-.21-.13-.39-.3-.52-.52s-.19-.45-.19-.71,.06-.5,.19-.72c.13-.21,.3-.39,.52-.52,.21-.13,.45-.19,.71-.19Z"/></g></g></g></g></svg>